<svg xmlns="http://www.w3.org/2000/svg" viewBox="-895.5 -572 1791 1144" width="1791" height="1144" style="background-color: rgb(26, 26, 26);"><path d="M591.8289016316551,-295.9223385533749L646.0741130529012,-319.67682491476324L656.0543278155941,-325.4196071611847z" style="fill:rgb(174,174,174);fill-opacity:1"/><path d="M645.5433946153856,-320.5854573982211L671.8127469275335,-264.23999766898265L682.2513966020223,-269.28005417498144z" style="fill:rgb(176,176,176);fill-opacity:1"/><path d="M678.525340823188,-250.81562471592974L710.136020207972,-263.8491663480932L689.0159815668494,-255.58031825925417z" style="fill:rgb(174,174,174);fill-opacity:1"/><path d="M671.8681182103945,-265.13359890772637L671.0379653614762,-263.8869872958241L682.4173633222395,-269.8901525025672z" style="fill:rgb(208,208,208);fill-opacity:1"/><path d="M671.5257024400538,-264.7874595510874L670.8831347489564,-263.42097445073983L681.978438540841,-269.14846433581977z" style="fill:rgb(205,205,205);fill-opacity:1"/><path d="M671.2107344097195,-264.40831785147515L670.7561255069587,-262.5617907715278L681.7305584011232,-268.3120915795701z" style="fill:rgb(200,200,200);fill-opacity:1"/><path d="M670.8652826626221,-263.6121318634541L670.8644470220593,-261.68185926082856L681.6862195380714,-267.44013744740687z" style="fill:rgb(192,192,192);fill-opacity:1"/><path d="M670.7292822903925,-262.74406756406887L671.1777882142117,-260.84671054499614L681.8518176743897,-266.57644540871155z" style="fill:rgb(184,184,184);fill-opacity:1"/><path d="M670.8106904296164,-261.8596720103866L671.6775258284626,-260.10146080902484L682.2186112825229,-265.7690701433719zM673.0008226717018,-259.13424124497703L674.8567055391728,-258.7777597844436L684.7293163693757,-264.03254465107307z" style="fill:rgb(175,175,175);fill-opacity:1"/><path d="M671.1023252275593,-261.0094762110418L672.3362135707575,-259.49089940941235L682.7638197368178,-265.0677798877332z" style="fill:rgb(170,170,170);fill-opacity:1"/><path d="M672.2291982299467,-259.6110589369644L673.9712682768978,-258.81217333490844L684.2528835378812,-264.1381932884396z" style="fill:rgb(174,174,174);fill-opacity:1"/><path d="M671.5853519164347,-260.2450528187521L673.11530959458,-259.05234588945217L683.4549878768102,-264.5135128319593z" style="fill:rgb(172,172,172);fill-opacity:1"/><path d="M674.1334884212752,-259.3460547487928L678.3974006675377,-250.628002848323L684.9884862296891,-264.20340632574454z" style="fill:rgb(176,176,176);fill-opacity:1"/><path d="M677.4534174767974,-251.48460217626837L679.4920931602611,-250.80977414547775L688.8502046543379,-256.3347497384426z" style="fill:rgb(175,175,175);fill-opacity:1"/><path d="M645.3267018626597,-319.8867294449745L682.0231986417718,-268.59028527540386L655.3862270614832,-325.6600284754649z" style="fill:rgb(176,176,176);fill-opacity:1"/><path d="M688.0984148035244,-255.18314419258178L709.2185999483279,-263.45163310036213L720.0847475415908,-268.37102562824003zM591.8552741893474,-295.870686906366L656.0799429769103,-325.3691513671677L601.1586884115901,-301.3240687337914z" style="fill:rgb(174,174,174);fill-opacity:1"/><path d="M670.8707278797402,-264.08559635529025L681.5384622074204,-268.4305085372178L681.948696925393,-270.19150055586283z" style="fill:rgb(207,207,207);fill-opacity:1"/><path d="M670.6464344017248,-263.67275813639293L681.4399781038605,-267.61890207692454L681.3565056283677,-269.43666971946357z" style="fill:rgb(201,201,201);fill-opacity:1"/><path d="M670.4234136901174,-262.8566160532082L681.5011170344926,-266.7943740151549L680.9985283124302,-268.5674224454905z" style="fill:rgb(193,193,193);fill-opacity:1"/><path d="M670.4070169342588,-262.00064227606225L681.746140248146,-265.9892369040709L680.875008926373,-267.63934333962453z" style="fill:rgb(185,185,185);fill-opacity:1"/><path d="M670.5984544348522,-261.15746673541355L682.1728167448011,-265.24702584933027L680.9814945812685,-266.7103842304472z" style="fill:rgb(176,176,176);fill-opacity:1"/><path d="M673.9068058849979,-258.657598511665L685.2702150596767,-263.8360650848607L683.7783049289508,-263.75258189466183z" style="fill:rgb(175,175,175);fill-opacity:1"/><path d="M670.9862713748078,-260.37434313645394L682.7627467721879,-264.61692375664427L681.3044765119191,-265.8298184932622z" style="fill:rgb(169,169,169);fill-opacity:1"/><path d="M673.050052492992,-258.8183588898577L684.7833892434927,-263.8448165517744L683.2914751328559,-263.9125333261826z" style="fill:rgb(175,175,175);fill-opacity:1"/><path d="M671.5474255130201,-259.6991561419895L683.4846444074368,-264.13877133135395L681.8198744100304,-265.04888158350576z" style="fill:rgb(172,172,172);fill-opacity:1"/><path d="M672.2476192664254,-259.1728716527517L684.2998195157452,-263.8434868316414L682.4946369517146,-264.4100704074894z" style="fill:rgb(174,174,174);fill-opacity:1"/><path d="M677.7179872251055,-250.87763698773034L688.6570030543892,-255.65057065536396L684.3014294909805,-264.4327949990516z" style="fill:rgb(176,176,176);fill-opacity:1"/><path d="M678.5549457066513,-250.7556206615852L689.9799903050138,-255.72367629424176L687.8952500758479,-256.1719790789076z" style="fill:rgb(175,175,175);fill-opacity:1"/><path d="M669.4256153158498,-385.6418115029049L654.6758023500781,-324.80413361075307L719.7379019397745,-267.18276620504867z" style="fill:rgb(193,194,194);fill-opacity:1"/><path d="M557.5498520723698,-200.00542255025601L625.6931426043792,-228.83198385282236L566.5005304122161,-204.12437572471921z" style="fill:rgb(174,174,174);fill-opacity:1"/><path d="M523.7492877553706,-270.02378716692033L550.6016758611202,-213.4883752623801L559.4766751257529,-217.89507257006653z" style="fill:rgb(175,175,175);fill-opacity:1"/><path d="M669.9364569857472,-385.56877152701264L600.4112793316024,-300.68270292440815L655.509439465412,-324.6758831444443z" style="fill:rgb(193,194,194);fill-opacity:1"/><path d="M469.651569171164,-244.30798020198904L525.1642937469466,-269.5650227771041L477.374956071047,-249.13742706274323z" style="fill:rgb(174,174,174);fill-opacity:1"/><path d="M550.6473884881768,-214.38792254222463L549.825467476848,-213.12437604999337L559.6500428157782,-218.51312520004092z" style="fill:rgb(208,208,208);fill-opacity:1"/><path d="M550.3024288706429,-214.03624883910447L549.6713857282724,-212.65196354264867L559.2121322583894,-217.75449914240127z" style="fill:rgb(204,204,204);fill-opacity:1"/><path d="M549.9875747173021,-213.6525481001155L549.5460050402442,-211.78190602411428L558.9669610571553,-216.90310683918597z" style="fill:rgb(199,199,199);fill-opacity:1"/><path d="M549.6435342462686,-212.84554587669828L549.6601694802509,-210.89331843270148L558.9273672022889,-216.02115263498732z" style="fill:rgb(191,191,191);fill-opacity:1"/><path d="M549.51264910119,-211.96843003332114L549.9804902944657,-210.05277364839793L559.0992481011272,-215.15113981255462z" style="fill:rgb(183,183,183);fill-opacity:1"/><path d="M549.6006329179994,-211.07719823895937L550.4888872437931,-209.3059503704736L559.474212961468,-214.34104887563674zM551.833327708416,-208.351946857129L553.7051233235964,-208.0120419409417L562.01899336143,-212.62833829035375z" style="fill:rgb(175,175,175);fill-opacity:1"/><path d="M549.9004768239901,-210.22255679543926L551.1573749415627,-208.69812697362792L560.028656380754,-213.64113129737936z" style="fill:rgb(170,170,170);fill-opacity:1"/><path d="M551.0489551725678,-208.82469216002823L552.8110365720794,-208.035980404415L561.5385401878046,-212.72451184450125z" style="fill:rgb(174,174,174);fill-opacity:1"/><path d="M550.3936362087102,-209.45677589689186L551.9461340022648,-208.26622907317648L560.7304397059249,-213.09165129890894z" style="fill:rgb(172,172,172);fill-opacity:1"/><path d="M552.9546553065323,-208.9421834363588L557.0902424398835,-200.06080567456473L566.2581157579081,-204.52648120287301zM556.3748877983622,-200.6887300305358L558.5259117501616,-199.99525227531214L566.2200489996976,-204.92016279082878z" style="fill:rgb(175,175,175);fill-opacity:1"/><path d="M654.5792805142705,-325.7433920882483L681.234522288477,-269.0122296158029L720.0410316638053,-267.62791159263594zM680.8060507907913,-269.92610891419827L684.0429254011254,-263.02327113572164L720.1618292212279,-268.0191264286004zM683.5733876560272,-263.9170257131001L688.8204104169967,-254.92801934266723L720.1232180881316,-268.22960414194085zM681.6185612279708,-270.34852883128684L680.5411408299326,-268.7200145525283L684.2612699418237,-262.7097786058808zM681.0843934944488,-269.68390795294005L680.4271937605102,-267.8614477609105L682.9258750124395,-263.19148624313647zM681.0950493534673,-270.35323790452964L683.7065947460195,-262.7413705766726L684.8694481493619,-263.50335390173177zM680.7509982143791,-268.8939008645902L680.5335837940899,-266.98766482588366L681.6174243304725,-264.4249742762486zM680.5995684943598,-269.6029881400623L683.2255907622867,-262.8930772343412L684.4181186569474,-263.56170281086696zM680.6841429053751,-269.6414496495384L682.201213279572,-263.5566411339522L684.0741640723724,-263.3647080022927zM680.5050471896735,-267.99489347359105L680.7077481525331,-266.06158130755L681.8092483484992,-264.52040103603105zM680.5062550230277,-268.843919969871L680.986169026442,-265.1549590038302L683.1784857036786,-263.37996070594664zM680.6326347057892,-266.1008940952848L681.6979629575324,-264.4632907298124L683.3724827909459,-263.5755541099251zM458.24327519532727,-297.5354473533764L601.3695784163267,-300.89668465882085L670.2818298827854,-385.2745283604797zM683.8376232374083,-264.4162553406048L687.681004861833,-255.35708314633558L689.7922624673505,-255.20981412975138z" style="fill:rgb(193,194,194);fill-opacity:1"/><path d="M565.5858139187981,-203.7205799303335L624.7780911832319,-228.42892023972442L634.5760894870133,-232.9034792426538z" style="fill:rgb(174,174,174);fill-opacity:1"/><path d="M523.542341565769,-269.3159786985631L559.2559692052279,-217.19868925546413L532.0279852269824,-274.46981462841853z" style="fill:rgb(175,175,175);fill-opacity:1"/><path d="M476.4958470475076,-248.6654044920224L524.2839237852479,-269.09507051142094L532.6990934282013,-274.2306281180299z" style="fill:rgb(174,174,174);fill-opacity:1"/><path d="M549.6567173254172,-213.32209173096774L558.7731284682872,-217.03175821072074L559.1837493909546,-218.812519305698z" style="fill:rgb(207,207,207);fill-opacity:1"/><path d="M549.4311961741117,-212.90586122413586L558.678125179444,-216.20460229159244L558.591130341888,-218.04378620772806z" style="fill:rgb(200,200,200);fill-opacity:1"/><path d="M549.209964352018,-212.07919654108173L558.7452355346353,-215.36976210788552L558.233973622609,-217.16281687033845z" style="fill:rgb(192,192,192);fill-opacity:1"/><path d="M549.198519643918,-211.21497243435874L558.9973122490122,-214.55803954014857L558.1148782895394,-216.22508349782558z" style="fill:rgb(185,185,185);fill-opacity:1"/><path d="M549.396589614721,-210.3663124645769L559.4328758383093,-213.8133358753135L558.2274199723413,-215.28902559878978z" style="fill:rgb(176,176,176);fill-opacity:1"/><path d="M552.7547625684954,-207.88305938910463L562.5678983890409,-212.4371766596707L561.0701686421352,-212.34121089171822z" style="fill:rgb(175,175,175);fill-opacity:1"/><path d="M549.792606668521,-209.58080415462643L560.0323913057437,-213.18522225607921L558.5586061395871,-214.40421495348687z" style="fill:rgb(170,170,170);fill-opacity:1"/><path d="M551.8869394513384,-208.0363360659064L562.0769809090847,-212.43678936640924L560.5779115249842,-212.4951752348643z" style="fill:rgb(175,175,175);fill-opacity:1"/><path d="M550.363293313608,-208.90666899782468L560.7647423070466,-212.71282564101745L559.0836029244106,-213.6226213776383z" style="fill:rgb(172,172,172);fill-opacity:1"/><path d="M551.0736476599191,-208.38474975001938L561.5894754026693,-212.42689380949452L559.7696420631786,-212.98642504376747z" style="fill:rgb(174,174,174);fill-opacity:1"/><path d="M552.7245742068636,-208.26945038369288L566.0522796018955,-203.85060865913934L561.835773987101,-212.80118966476883z" style="fill:rgb(175,175,175);fill-opacity:1"/><path d="M434.97226038588497,-146.98152684556544L503.26106977114495,-176.70605634312886L511.50066284304637,-180.52371925770387z" style="fill:rgb(174,174,174);fill-opacity:1"/><path d="M557.5868520812853,-199.93441604057543L567.460286775364,-204.27631260390268L565.26725160133,-204.75573695953997z" style="fill:rgb(175,175,175);fill-opacity:1"/><path d="M628.536781965972,-245.63159402075124L631.2004608538783,-242.97517801926156L630.0614466648128,-244.50378965583064zM628.7157696379204,-245.77223243543992L631.3274450663455,-240.22404179839668L630.7834916318479,-243.86234906398957zM630.1521608588907,-244.6375160031933L631.3226075341915,-241.07550212006913L631.0048599918653,-242.9444109230638zM627.8216592060292,-246.0071634785378L631.1148766798907,-239.41100072935512L629.593529179652,-245.25758937412525zM627.2764062578829,-246.03169512926505L631.1975479893744,-239.44643704046325L628.7679448113475,-245.70386306332537zM630.2639471515259,-244.67538880722373L631.1195260003003,-240.17608327608107L631.2120732810047,-242.06887863802302zM626.7909410882552,-246.03710456269033L630.7009162230964,-238.6959952332562L628.3140304842657,-245.9048951999417zM628.9129811046081,-245.90044588078433L630.863182135544,-239.36663736566283L631.2758910742363,-241.21906970145588zM627.5626405171387,-246.378794313202L630.3756006413804,-238.65934021666484L631.1182660855253,-240.39987612090783z" style="fill:rgb(193,194,194);fill-opacity:1"/><path d="M400.19390924981985,-216.54421990857497L428.3854969455677,-160.29398992791437L407.0593670411841,-221.0418421015211z" style="fill:rgb(175,175,175);fill-opacity:1"/><path d="M601.1980263875319,-302.16939769450215L558.0673360660732,-217.42983932263195L628.1802993610518,-245.27761786543576zM458.23050201622004,-297.8833835785669L531.8296597384698,-273.4172631263194L602.1489868398634,-301.4709990357206z" style="fill:rgb(193,194,194);fill-opacity:1"/><path d="M345.7877717806299,-190.54870242446475L400.8708479757686,-216.30290695777128L407.674419816522,-220.79592487805826z" style="fill:rgb(174,174,174);fill-opacity:1"/><path d="M531.1359611994411,-274.0272024278016L558.7503950648843,-217.16639961408328L601.875578273497,-301.90189888175087zM560.7149671534306,-211.7229773069034L631.0138725851021,-239.36372187318645L627.7000766800911,-246.20528907782744zM565.6117386736081,-203.6675729289649L634.363246422095,-232.25734444218082L630.4963392517406,-240.2962253832276z" style="fill:rgb(193,194,194);fill-opacity:1"/><path d="M427.8205911782449,-161.4170505283195L427.00940568716646,-160.13414087125398L435.23296644485237,-164.87557224712683z" style="fill:rgb(208,208,208);fill-opacity:1"/><path d="M427.4738402686342,-161.06071454116724L426.85438835851824,-159.65578645839798L434.7970214351035,-164.09827675731756z" style="fill:rgb(204,204,204);fill-opacity:1"/><path d="M427.1569656318846,-160.6747847320434L426.7322909746458,-158.77398524919963L434.55521161451554,-163.2296982249192z" style="fill:rgb(199,199,199);fill-opacity:1"/><path d="M426.81532922448827,-159.85716335575998L426.8518657452528,-157.8763004953585L434.51957371060826,-162.33759545844055z" style="fill:rgb(191,191,191);fill-opacity:1"/><path d="M426.6892981207323,-158.97092429130336L427.17924522984856,-157.03006666988452L434.69797878463356,-161.4612842568321z" style="fill:rgb(183,183,183);fill-opacity:1"/><path d="M426.7834211597484,-158.07243070011538L427.69729194871394,-156.28179889227093L435.08115760205055,-160.64897841431227z" style="fill:rgb(174,174,174);fill-opacity:1"/><path d="M429.06106874749173,-155.34502982796693L430.9511816869064,-155.0180226528594L437.66001193183064,-158.96378389064546z" style="fill:rgb(175,175,175);fill-opacity:1"/><path d="M427.0922919851415,-157.21307591141635L428.37567200365027,-155.6766440470532L435.6453681448985,-159.95077692746753z" style="fill:rgb(170,170,170);fill-opacity:1"/><path d="M428.2630658409018,-155.81453281891484L430.0478898306284,-155.03212087018633L437.17630087848323,-159.0484022075654z" style="fill:rgb(174,174,174);fill-opacity:1"/><path d="M427.59608963131035,-156.44533209260246L429.17392746603525,-155.25167116552038L436.3575003112158,-159.40687391018122z" style="fill:rgb(173,173,173);fill-opacity:1"/><path d="M430.2114827668173,-155.58132344841394L434.7489483900179,-146.79521875084438L437.83554876687134,-159.16881157306565zM433.69379869065256,-147.66767609307243L435.9691557542738,-146.9486871660517L441.9379084626156,-151.25117988982848z" style="fill:rgb(175,175,175);fill-opacity:1"/><path d="M558.0748174197544,-218.33025949460696L561.3970463225736,-211.4582894984948L628.4123860938199,-245.95365238781315zM560.8986331794924,-212.381664571052L566.3322941224974,-203.43476264158483L631.2030870886218,-240.04189699399288zM458.5552678398385,-298.3644465462228L477.13208979946074,-248.39081216720933L532.7471105331724,-273.8137290511017zM558.8499048909658,-218.96204853914344L557.778892459249,-217.31508133002075L561.56233164757,-211.29929565587352zM558.3158040526653,-218.28284947082042L557.6662422890982,-216.44612171415153L560.2107383746707,-211.76732561743zM558.3268620347656,-218.96297683142103L561.0054954916678,-211.32827178582858L562.1716299538317,-212.0986268298489zM557.9842211335173,-217.48066294849892L557.7782749656238,-215.564151811788L558.8813804368426,-212.99503346326685zM557.8306845115375,-218.19854975668477L560.5184101275086,-211.47480097985252L561.7152639701101,-212.15061986065092zM557.9155529804505,-218.23786203608714L559.483681191139,-212.12688420337574L561.3654051343017,-211.95110846898507zM557.7435024163103,-216.57107107147527L557.9594447384258,-214.6321794617072L559.0722609563223,-213.0911753835569zM557.7392303613601,-217.42894719174024L558.2452908182383,-213.72000358695297L560.463055682815,-211.9587299679162zM557.8847390331696,-214.66306235197894L558.9677001054987,-213.03069089609673L560.6562953739419,-212.15678906615074zM561.1292759538003,-213.00406491302707L565.063085800323,-203.94199023698164L567.2811882471021,-203.7487891911799zM459.3093103856575,-298.62118134277796L406.06778182922056,-219.6928399945591L478.04882473307276,-248.79191304103924z" style="fill:rgb(193,194,194);fill-opacity:1"/><path d="M434.9776246192027,-146.969637797188L511.5056939450926,-180.5125388618307L442.34428182312286,-150.40984161909185z" style="fill:rgb(174,174,174);fill-opacity:1"/><path d="M406.41738946517995,-221.21493746113742L427.73420205893694,-160.48721263206104L435.0020382340736,-164.2205832408432z" style="fill:rgb(175,175,175);fill-opacity:1"/><path d="M345.82770590909905,-190.4789211892285L407.7124020000951,-220.72880243429648L351.9218340024642,-194.65133690887026z" style="fill:rgb(174,174,174);fill-opacity:1"/><path d="M426.83907844293293,-160.33093053576178L434.36015447641734,-163.36958745787223L434.76876828170464,-165.17287196416288z" style="fill:rgb(206,206,206);fill-opacity:1"/><path d="M426.61066398921736,-159.9132582230589L434.26969482270107,-162.5247160903079L434.17608797635,-164.38977374502002z" style="fill:rgb(200,200,200);fill-opacity:1"/><path d="M426.3917371273468,-159.07625418861213L434.3416142418029,-161.67869311482258L433.8206649882058,-163.49721786496724z" style="fill:rgb(192,192,192);fill-opacity:1"/><path d="M426.38498073748815,-158.203768894336L434.6014207948403,-160.8600445482903L433.7052295650687,-162.54983053182434z" style="fill:rgb(184,184,184);fill-opacity:1"/><path d="M426.58949265516407,-157.3496205791762L435.046020886363,-160.11277888573838L433.8243845994116,-161.60669699430733zM430.0000251962846,-154.88056040140032L438.218471556416,-158.77629993221595L436.7140796825922,-158.66848667198892z" style="fill:rgb(175,175,175);fill-opacity:1"/><path d="M426.9942242414739,-156.56171801633866L435.65571475536757,-159.48664744689614L434.16403104747826,-160.71778688631164z" style="fill:rgb(170,170,170);fill-opacity:1"/><path d="M429.12003594770897,-155.02784566113255L437.7241298743659,-158.76493044317047L436.2166150928178,-158.81621001318857z" style="fill:rgb(175,175,175);fill-opacity:1"/><path d="M427.5747304129658,-155.88838086959612L436.3982408496309,-159.02074733314817L434.6992590741962,-159.93523793938508z" style="fill:rgb(172,172,172);fill-opacity:1"/><path d="M428.29526503750674,-155.3707286620968L437.23286007130883,-158.7449014668376L435.3963789844015,-159.30164420553865z" style="fill:rgb(174,174,174);fill-opacity:1"/><path d="M434.059749572052,-147.0351995402317L441.7776852617402,-150.53050566422246L437.15208067661047,-159.38723509414748z" style="fill:rgb(175,175,175);fill-opacity:1"/><path d="M310.73831766549966,-91.66195554502924L380.1258453197034,-122.73861772826528L386.7638445375113,-125.86151429772701z" style="fill:rgb(174,174,174);fill-opacity:1"/><path d="M435.02681446360015,-146.88239933276225L443.3010064432351,-150.56783108991942L440.9888035458374,-151.08276703915726z" style="fill:rgb(175,175,175);fill-opacity:1"/><path d="M505.366770900938,-193.24785048697257L508.06445838641804,-190.61069969762306L506.90894678760736,-192.13387946888795zM505.5460386185121,-193.39142686262656L508.2099516010593,-187.83629101068263L507.64100468740986,-191.49442813161357zM507.0029560098184,-192.26401442863738L508.20035031833964,-188.69672464187235L507.87063507222297,-190.57142612384044zM504.64262733557393,-193.6166852046881L507.99957514344345,-187.01156946263131L506.42970861834965,-192.88661794055645zM504.0923960247586,-193.63440112581918L508.0825274589106,-187.04781890471924L505.59268705558026,-193.32562094335586zM507.1151262194684,-192.30284245519917L508.00142583763517,-187.7868370077094L508.0843044719756,-189.6894458435047zM503.6023612777123,-193.63347201470626L507.58508552512234,-186.28306715822285L505.13213751817307,-193.5213834932382zM505.7436241193708,-193.5221917540545L507.7469066513927,-186.96551604445023L508.1531773419847,-188.8309494086967zM504.3770038082697,-193.98667710946L507.25856509615903,-186.2443812314122L507.99779945974393,-188.00032578473824zM477.4196559738437,-249.96539833041433L433.6595135165338,-163.7747584928742L504.9970273330574,-192.88808978661862zM351.1487622943633,-194.02243468947802L406.98397086849167,-220.094704844665L459.844650966918,-298.50044154034117zM406.1258574532255,-220.55817224473415L434.34409054831167,-163.517225669264L478.09874451736346,-249.7038140064727z" style="fill:rgb(193,194,194);fill-opacity:1"/><path d="M275.2418903883646,-162.1643615822076L303.3031828238952,-105.23963166069628L308.9051896777316,-108.28644292121854z" style="fill:rgb(174,174,174);fill-opacity:1"/><path d="M436.37210140011956,-158.04480337276385L507.8927752900583,-186.95399653172774L504.510532586565,-193.8117803544029zM441.45788979439936,-149.9488764529932L511.29259691275536,-179.87593609607646L507.36880754424794,-187.88228727305483z" style="fill:rgb(193,194,194);fill-opacity:1"/><path d="M303.3219583928632,-106.16113423813638L302.52322885874923,-104.85552770370236L309.09553370286255,-108.91956561121876z" style="fill:rgb(207,207,208);fill-opacity:1"/><path d="M302.97124647874944,-105.80319749788995L302.3674668720938,-104.3702191243382L308.6626436367078,-108.11941295042993z" style="fill:rgb(204,204,204);fill-opacity:1"/><path d="M220.30852451648187,-134.34500710878405L276.6349873278536,-161.7210766336711L224.70662020815362,-137.84685025899148z" style="fill:rgb(174,174,174);fill-opacity:1"/><path d="M302.6511872873151,-105.41866255661867L302.24946313256623,-103.47550067172088L308.42504548875326,-107.2295274779771z" style="fill:rgb(199,199,199);fill-opacity:1"/><path d="M302.31244440802584,-104.59056102512316L302.3749180249005,-102.56822715289768L308.3931148373688,-106.32705453314196z" style="fill:rgb(190,190,190);fill-opacity:1"/><path d="M302.1908827619325,-103.69525879396653L302.7117981614117,-101.71443284002052L308.5782776691202,-105.44330337678176z" style="fill:rgb(183,183,183);fill-opacity:1"/><path d="M302.2931101652962,-102.7872130193264L303.2396801169835,-100.96496279194828L308.96940327381566,-104.63050088781846z" style="fill:rgb(173,173,173);fill-opacity:1"/><path d="M304.61748034328974,-100.05419060005306L306.5315615480052,-99.73248619191261L311.58013204008904,-102.98251145633355z" style="fill:rgb(175,175,175);fill-opacity:1"/><path d="M302.61147455999605,-101.92263299750063L303.92792347952246,-100.3631960240694L309.54346708179116,-103.93602570115605z" style="fill:rgb(170,170,170);fill-opacity:1"/><path d="M303.80556021027763,-100.52250967245267L305.6174428045838,-99.73817353056245L311.0959385464898,-103.05080395900364z" style="fill:rgb(174,174,174);fill-opacity:1"/><path d="M303.12609085836766,-101.15231837468518L304.73576907507,-99.94621826023615L310.26604842192876,-103.39927190806223z" style="fill:rgb(173,173,173);fill-opacity:1"/><path d="M305.797645165667,-100.77530714377795L310.07924581763336,-91.73213010090642L315.95984402208404,-94.73463517904416z" style="fill:rgb(174,174,174);fill-opacity:1"/><path d="M309.3439570437111,-92.36156133930376L311.7695434779556,-91.60022236221216L315.9221419588539,-95.27886344156275z" style="fill:rgb(175,175,175);fill-opacity:1"/><path d="M433.663270709897,-164.67365317635804L437.0557083195076,-157.78608974349416L505.22401407247395,-193.56622922738526zM436.54766472648356,-158.7030964588146L442.1825935592115,-149.72485880182583L508.07701230209216,-187.63415150905254zM243.8991689665245,-204.42434699418544L352.10032240671575,-194.1871799107293L460.02321182028845,-298.2857755014536zM434.43315527919793,-165.3122454041555L433.3687931467635,-163.64671130896767L437.2169198050545,-157.62550305264477zM433.8992215979692,-164.61837563893482L433.25783521645087,-162.76701345635252L435.8484495005275,-158.0796026849788zM433.910584835692,-165.30936689358597L436.65808247489997,-157.65168093399L437.82702206878645,-158.43098975085485zM433.57026766641604,-163.80363472337535L433.37415976589085,-161.87674222086682L434.4980705574451,-159.30143964238962zM433.41389482540825,-164.53061648206815L436.16434039694263,-157.7932380518343L437.36603861324323,-158.47606440505965zM433.4990841891618,-164.57080827318697L435.1190301143669,-158.43359533719251L437.0098691141631,-158.2740452548053zM433.33350805576816,-162.88334837066904L433.56359718931014,-160.9388928760798L434.68790185804306,-159.39822396890372zM433.3246544706524,-163.75019176671034L433.85689632522605,-160.02118745208992L436.10045858424314,-158.27398412747112zM433.48924759466854,-160.96122412877222L434.590757192426,-159.33441474511133L436.2928634603278,-158.47438273185517zM436.7741491987933,-159.32856656761354L440.8012834623296,-150.26054495229508L443.1298443944105,-150.02928309157934z" style="fill:rgb(193,194,194);fill-opacity:1"/><path d="M275.0672167148404,-161.42212203906303L308.70755856514495,-107.56522843929912L280.2490793331401,-165.25374590418497zM223.86569846806057,-137.31698319945536L275.78948645028487,-161.19723531787946L280.9168982223621,-165.03419784973855zM310.7428581674384,-91.65211085641224L386.7679970415524,-125.8524849829213L316.48099964018854,-94.37449121000132z" style="fill:rgb(174,174,174);fill-opacity:1"/><path d="M302.3519424563716,-105.05098231600965L308.2296443735,-107.38244243996546L308.63382162426365,-109.21408036697147z" style="fill:rgb(206,206,206);fill-opacity:1"/><path d="M302.11860730998586,-104.63547375420461L308.14619871350493,-106.51560456707885L308.0404043638537,-108.41514308945777z" style="fill:rgb(200,200,200);fill-opacity:1"/><path d="M301.9022316086829,-103.78827556085052L308.2227994659817,-105.65700229403308L307.6875080516763,-107.51128318585393z" style="fill:rgb(191,191,191);fill-opacity:1"/><path d="M301.90017247358895,-102.90808455958853L308.49055565677423,-104.82851249769678L307.5767368169804,-106.55496040203842z" style="fill:rgb(184,184,184);fill-opacity:1"/><path d="M302.11265321177507,-102.04663710589233L308.94464490175545,-104.07957464428465L307.702981974158,-105.60310964535283zM305.5783918398709,-99.58745718935717L312.1527860977265,-102.79354342875125L310.63909860466873,-102.67646244669703z" style="fill:rgb(175,175,175);fill-opacity:1"/><path d="M302.52634965890724,-101.25647380813089L309.5648724793241,-103.45681563374613L308.0512465311459,-104.71053381806283z" style="fill:rgb(170,170,170);fill-opacity:1"/><path d="M304.68379134518415,-99.73211643400423L311.65589577111996,-102.76852238564891L310.1380920671253,-102.81637966384845z" style="fill:rgb(175,175,175);fill-opacity:1"/><path d="M303.1166353530448,-100.58411209382025L310.31755495355674,-102.99871052965496L308.59709063976834,-103.9277220156033z" style="fill:rgb(172,172,172);fill-opacity:1"/><path d="M303.84763686351215,-100.07081723673714L311.1620503510792,-102.73487662350462L309.30547294001695,-103.29661966215224zM305.5827229105856,-100.10472048039944L315.7634612751551,-94.03075892152211L311.4218410693074,-103.14411652603124z" style="fill:rgb(174,174,174);fill-opacity:1"/><path d="M310.81925380019015,-91.53179992054729L317.4355609545234,-94.53688268980551L314.98221450213936,-95.10102067457004z" style="fill:rgb(175,175,175);fill-opacity:1"/><path d="M380.5360438338919,-138.57922340885736L383.2680781618773,-135.96186018516536L382.09514720060304,-137.47915276721918zM380.7154565750084,-138.72564667624613L383.4324346898456,-133.16388056566802L382.8380227773672,-136.84198594636416zM382.19311975462153,-137.60582866203396L383.4185656555115,-134.03346608079988L383.07603114058696,-135.91388855017442zM379.80241839383945,-138.94116224210526L383.2241935276602,-132.3272180220963L381.6049995207455,-138.2308303732531zM379.2469925430826,-138.95191444863806L383.30744936682765,-132.3643063936528L380.7561180840762,-138.66247123422826zM382.30565907340184,-137.64562016179423L383.2231533019258,-133.11289920634727L383.2970051215966,-135.02548408558224zM378.7524832185771,-138.94439733387173L382.809382621801,-131.5850164110162L380.2886788472181,-138.8528522177567zM380.91341060549775,-138.8590148989723L382.9704822977796,-132.27944820008636L383.3704678437153,-134.15813615317805zM379.52985843924563,-139.30939801729667L382.4816845286017,-131.54425119901302L383.21718867523725,-133.31584378048973zM244.0277454281332,-204.999564021364L279.9416806676022,-163.93846133384034L352.9198291739,-194.72999064412326zM351.96751893493314,-195.47560534776903L307.5347740206996,-107.79597520425764L380.15243077511866,-138.21318626303668zM279.38565493983214,-164.7646977671261L308.22089970952993,-107.54428090238876L352.6481683353994,-195.21986494223316z" style="fill:rgb(193,194,194);fill-opacity:1"/><path d="M184.7810323923881,-33.98972548312367L256.21060973328764,-66.89250508854992L188.84378651209477,-35.95355027436703zM148.39466483818768,-104.74552378694939L177.09282666545198,-47.61002988483315L180.96127011256064,-49.950207825913594z" style="fill:rgb(174,174,174);fill-opacity:1"/><path d="M315.64487658188955,-93.82504163471388L383.08413422179706,-132.31522242972497L379.626347181035,-139.18601307918405zM315.5979382319102,-93.90726928036396L386.5600791150347,-125.21329425362285L382.58134823496795,-133.18299552324498z" style="fill:rgb(193,194,194);fill-opacity:1"/><path d="M177.0862053112216,-48.5560635325559L176.30614914654748,-47.221198831920226L181.16355626586167,-50.58924154089762z" style="fill:rgb(207,207,207);fill-opacity:1"/><path d="M176.7284243706156,-48.20439783099827L176.14960127010693,-46.72923831209065L180.73746863826506,-49.75900306085609z" style="fill:rgb(203,203,203);fill-opacity:1"/><path d="M176.40337329488796,-47.83454190786006L176.0362870629737,-45.8202711901512L180.50451423874858,-48.83642991633139z" style="fill:rgb(198,198,198);fill-opacity:1"/><path d="M93.05980931836812,-75.80513454970298L149.77624246484575,-104.30943310013865L95.64817233530384,-78.65142247572861z" style="fill:rgb(174,174,174);fill-opacity:1"/><path d="M176.06692634111636,-46.99730083779373L176.16999323266194,-44.90120967786954L180.47432163383428,-47.924020368806616z" style="fill:rgb(190,190,190);fill-opacity:1"/><path d="M175.95074675434222,-46.091265151033916L176.51694029451224,-44.03961202954256L180.66290802545709,-47.037190067916676z" style="fill:rgb(182,182,182);fill-opacity:1"/><path d="M176.06052860760855,-45.17267334689612L177.05587206998428,-43.287074235130405L181.06073727525964,-46.22696627112983z" style="fill:rgb(173,173,173);fill-opacity:1"/><path d="M178.4359639419275,-42.41682383015492L180.39339735167164,-42.07885020935585L183.6965447285572,-44.63691408063904z" style="fill:rgb(175,175,175);fill-opacity:1"/><path d="M176.38842093134534,-44.29901304126529L177.75537245267128,-42.687606160919735L181.64384879107735,-45.53950260040437z" style="fill:rgb(170,170,170);fill-opacity:1"/><path d="M177.60744475151282,-42.890344114261495L179.46095200981821,-42.082368592422675L183.2200760090822,-44.67612389283977z" style="fill:rgb(174,174,174);fill-opacity:1"/><path d="M176.91504345780228,-43.52277384455599L178.57222990534902,-42.27792446298748L182.37768066570433,-45.012657259715766z" style="fill:rgb(173,173,173);fill-opacity:1"/><path d="M179.6093415341506,-42.67004222192497L184.48009781921752,-33.850873941678074L183.75972794345148,-44.818390321269234z" style="fill:rgb(174,174,174);fill-opacity:1"/><path d="M244.66904399486677,-205.43109908643692L224.17664737051413,-137.04587199065955L280.8509316173476,-164.35507044910514z" style="fill:rgb(193,194,194);fill-opacity:1"/><path d="M183.22683634059248,-34.80282519718917L185.7444356109203,-34.031265969087606L189.76061399117972,-36.320197162888256z" style="fill:rgb(175,175,175);fill-opacity:1"/><path d="M307.534891849699,-108.69324392691824L310.99903091891724,-101.79013442197223L380.3743139361298,-138.89327471221523zM310.4994181151629,-102.66154308978784L316.35032890347964,-93.65593628020657L380.32296000125575,-138.98588703242584zM308.2995877432565,-109.33849016930476L307.2413531328431,-107.6534125445164L311.15604261129874,-101.627837913551zM307.7651590632016,-108.62896672181783L307.132446354957,-106.76264491946307L309.7711462066286,-102.06701756731246zM307.7774508440817,-109.33180394659257L310.59499425623704,-101.6512300972014L311.76722489651013,-102.43938430336127zM307.43904564244355,-107.80139283113088L307.2535330219597,-105.86401455267094L308.3993512079029,-103.28151988810464zM307.27968027722596,-108.53763843808734L310.09569490243655,-101.7869800403092L311.30082010521846,-102.47799710182818zM307.3651343397367,-108.57871551473971L309.0393439421009,-102.41504164569875L310.93918123330224,-102.27301654553784zM307.2065576120668,-106.87020080674233L307.4518996893214,-104.91853003983448L308.58832914117943,-103.37915299750792zM307.19281457026017,-107.746132110064L307.7529176038459,-103.99568688745443L310.0228957179365,-102.2646457378193zM307.37777124879653,-104.93247607484687L308.4987910394356,-103.31273342608547L310.2143222062053,-102.46730367535993zM310.70350124399,-103.32890316947083L314.8263162036291,-94.25327009388033L317.27207157714395,-93.98909128826594z" style="fill:rgb(193,194,194);fill-opacity:1"/><path d="M187.93947761132006,-35.526773151746475L255.30574567006806,-66.46688176063616L260.29677860971987,-68.85521665322992z" style="fill:rgb(174,174,174);fill-opacity:1"/><path d="M245.3428162803128,-205.41874173887686L150.7314736843601,-105.77309908127604L225.08550816801656,-137.46426938261476z" style="fill:rgb(193,194,194);fill-opacity:1"/><path d="M148.25820693647367,-103.96299130306623L180.7891324112221,-49.199042911604124L151.67428249657397,-107.11814256766768zM94.864919487197,-78.05719164853201L148.978698380153,-103.72919305584405L152.33189886549815,-106.91508202217916z" style="fill:rgb(174,174,174);fill-opacity:1"/><path d="M176.13453056622413,-47.41519984549826L180.3142668459501,-49.008077682202995L180.70510227703147,-50.877728385990636z" style="fill:rgb(206,206,206);fill-opacity:1"/><path d="M175.89127403417288,-47.01544148770686L180.24135871074287,-48.10692263444815L180.11244656142648,-50.06261613425867z" style="fill:rgb(199,199,199);fill-opacity:1"/><path d="M175.67697164094247,-46.160112034115826L180.32174728462184,-47.232183345616754L179.76281678439466,-49.148752297726524z" style="fill:rgb(191,191,191);fill-opacity:1"/><path d="M175.68021267570285,-45.27173806039126L180.59531656579645,-46.39372818359576L179.6575586814429,-48.18497246176358z" style="fill:rgb(183,183,183);fill-opacity:1"/><path d="M175.90029045578186,-44.403155748500446L181.0588812306785,-45.642392891107924L179.78960536997678,-47.22725325358113z" style="fill:rgb(174,174,174);fill-opacity:1"/><path d="M179.4320984267569,-41.930313700736164L184.30059801866219,-44.42891393355541L182.7693471401779,-44.30975991657645z" style="fill:rgb(175,175,175);fill-opacity:1"/><path d="M176.3231782050179,-43.60806120113953L181.68987907851673,-45.023956744807485L180.14626038291397,-46.33102917427062z" style="fill:rgb(170,170,170);fill-opacity:1"/><path d="M178.51454946935516,-42.08283908574685L183.80398387360904,-44.38248097937869L182.26881223416157,-44.43863865670176z" style="fill:rgb(175,175,175);fill-opacity:1"/><path d="M177.66529824567823,-42.42249042402123L183.30858941043684,-44.32754547225794L181.42282101188522,-44.91649629058199z" style="fill:rgb(174,174,174);fill-opacity:1"/><path d="M176.92394695060503,-42.93393556233508L182.45377242699533,-44.576077646253694L180.70232618446659,-45.5468516682668z" style="fill:rgb(172,172,172);fill-opacity:1"/><path d="M183.7809181636511,-34.074884579120834L188.04322032492553,-36.1143616200596L183.08512229638413,-45.02186176812393z" style="fill:rgb(174,174,174);fill-opacity:1"/><path d="M253.97361806984094,-81.56425951740954L256.7409717361614,-78.96907593585561L255.5498993601255,-80.47945895552465z" style="fill:rgb(193,194,194);fill-opacity:1"/><path d="M183.27488303378558,-34.43240206925831L189.82904308454604,-35.99979180398201L187.28370513536098,-36.632142988840435z" style="fill:rgb(175,175,175);fill-opacity:1"/><path d="M254.15315743148201,-81.71370422898345L256.9259060830223,-76.14604468290858L256.3039213881249,-79.84531376164698zM255.65200141017976,-80.6030750850845L256.9064787240482,-77.02480986936887L256.5507457668823,-78.912552993987zM253.23056730274007,-81.9187146280947L256.7196471418968,-75.29715075654352L255.0487770547404,-81.22946058401254z" style="fill:rgb(193,194,194);fill-opacity:1"/><path d="M57.02207202502338,26.074503861571703L128.7333446519778,-7.828520448922425L132.02895666266988,-9.442142360916668z" style="fill:rgb(174,174,174);fill-opacity:1"/><path d="M252.67049813135083,-81.9225660159257L256.80315902055315,-75.33509121380003L254.18785166557953,-81.65271607586817zM255.7649267877515,-80.64390916259762L256.7161339236007,-76.09346295589349L256.77893855956785,-78.01605080640354zM252.17133601244632,-81.90830727655208L256.303879055281,-74.54015663228341L253.71400682578516,-81.83756931653622zM254.35149830751004,-81.8498480192879L256.46477426648863,-75.24758825129474L256.8585588104236,-77.13983144658958zM252.95150749964793,-82.28523586187104L255.9748507441525,-74.49730084014067L256.7073744485775,-76.28554583704675zM224.77135197685777,-138.6381001087624L179.6246790941498,-49.429711062685335L253.576531294521,-81.19129986645761zM21.856209661052045,-103.17464405318611L151.69132394882212,-105.98183992783382L245.65401900255137,-205.14779842446245zM150.8472268198774,-106.58291571173649L180.31237803334696,-49.18379665613491L225.45358539305218,-138.38814462653235zM188.01123749728066,-35.398953961499515L256.5730220192994,-75.27258745952268L253.04398632493255,-82.15936419970942z" style="fill:rgb(193,194,194);fill-opacity:1"/><path d="M19.7321528162107,-44.915313748910954L49.14016324211854,12.483269524535109L51.104346957857686,10.786874431329565z" style="fill:rgb(173,173,173);fill-opacity:1"/><path d="M187.96449547084623,-35.4792407913696L260.09745442365625,-68.20646602836293L256.06399993870895,-76.13665590218267z" style="fill:rgb(193,194,194);fill-opacity:1"/><path d="M49.0601083513768,11.48185505209932L48.313758409784576,12.852877496350388L51.33944669476159,10.14358315064464z" style="fill:rgb(207,207,207);fill-opacity:1"/><path d="M48.677452100868194,11.790368895620555L48.160687739951804,13.356801441632026L50.93404264856066,11.036104693562603z" style="fill:rgb(203,203,203);fill-opacity:1"/><path d="M48.347010472015576,12.077148956553023L48.06037162316654,14.285302545234286L50.69863374504248,12.054938427931752z" style="fill:rgb(198,198,198);fill-opacity:1"/><path d="M48.0167659138235,12.932561606573426L48.21271392304685,15.222190749644325L50.65567327511355,12.962978646804896z" style="fill:rgb(189,189,189);fill-opacity:1"/><path d="M47.906358351865336,13.864428798826406L48.58072791153134,16.097445818179054L50.837338925712615,13.832226095838147z" style="fill:rgb(182,182,182);fill-opacity:1"/><path d="M-35.801462869364094,-14.762194505973993L21.101649114464795,-44.486024573634424L-35.508966017479715,-17.04376683297073z" style="fill:rgb(174,174,174);fill-opacity:1"/><path d="M48.02302648047415,14.809617654545324L49.141484310979266,16.858861305007416L51.23213437893235,14.618018701108872z" style="fill:rgb(172,172,172);fill-opacity:1"/><path d="M50.46451898349402,17.65617143795595L52.62933747649948,18.09049126306952L53.77607537699885,16.032488926632237z" style="fill:rgb(175,175,175);fill-opacity:1"/><path d="M48.3604690447766,15.706975457346495L49.86061761519235,17.46234024790707L51.81586943406555,15.277486698178253z" style="fill:rgb(170,170,170);fill-opacity:1"/><path d="M49.606760709055706,17.148060491634457L51.58708755635275,18.056929842592577L53.410689180290056,16.084760864421817z" style="fill:rgb(174,174,174);fill-opacity:1"/><path d="M48.89904214371996,16.502706974292575L50.692681132259935,17.869955846868336L52.555600758262905,15.775103866610188zM51.75387166449426,16.749942484530603L56.1880785275017,26.053369597176513L58.41426665888105,24.564778747669614z" style="fill:rgb(173,173,173);fill-opacity:1"/><path d="M179.6212362682499,-50.32526611823823L183.15829662719884,-43.406904539707384L253.79330428733064,-81.87319088494665z" style="fill:rgb(193,194,194);fill-opacity:1"/><path d="M55.404122467762114,25.408715676426095L58.653915294263854,26.201221930047662L57.91492390778862,23.831022661572337z" style="fill:rgb(175,175,175);fill-opacity:1"/><path d="M182.64882886951148,-44.27216090040633L188.7211962356153,-35.23763947062879L253.74176149275632,-81.96444137693103zM180.38089376664175,-50.97696683429133L179.32869736985558,-49.27303819411861L183.310847559761,-43.24255046023992zM179.84631342900303,-50.25230268544321L179.22138332948916,-48.3710709060507L181.90846523858644,-43.666920841583135zM179.85903241167338,-50.96654066511589L182.74756350851908,-43.263192265775345L183.9234507309054,-44.06035201458234zM179.5223008687666,-49.41185700259477L179.34820449919113,-47.463899728302714L180.51432140187944,-44.87492824025714zM179.36043654956904,-50.15746962520949L182.24172144836552,-43.393438996907506L183.45171718779233,-44.09192007360481zM179.44621859693666,-50.1994654205589L181.17431129235794,-44.00923492019815L183.08359873535326,-43.8840632460008zM179.2951833745944,-48.46968724366687L179.55328019628848,-46.51183502233854L180.70280633418494,-44.97365108444154zM179.27569623972147,-49.35479808726173L179.86299898828372,-45.58376296754191L182.15985311921966,-43.8676334298979zM179.48066803864324,-46.517349744446754L180.62070938084852,-44.90382046379994L182.3503436339298,-44.072619986237115zM182.84860789635957,-44.941546540241376L187.06939768083356,-35.85663429494312L189.64065707005145,-35.56447582730906zM21.83800458707588,-103.54328430663811L95.79003015005827,-78.10975162737888L152.48080487745682,-106.57128320731866z" style="fill:rgb(193,194,194);fill-opacity:1"/><path d="M19.722229793431215,-44.03726125238475L51.01855547483323,11.6212418145347L21.14594333960665,-46.582607071116264z" style="fill:rgb(173,173,173);fill-opacity:1"/><path d="M-36.01598746933975,-16.31683282984747L20.500691480351087,-43.78233113137482L21.732780002985262,-46.408843751441225zM57.02670679534784,26.084039698543744L132.03237730733008,-9.435052209979865L59.362972287414706,24.9177406561996z" style="fill:rgb(174,174,174);fill-opacity:1"/><path d="M48.14166665719429,12.6575939873036L50.547975363566785,11.821446755730271L50.89632743821337,9.885833574075551z" style="fill:rgb(205,205,205);fill-opacity:1"/><path d="M47.86555803375241,12.957000527495543L50.49553349167344,12.83671601183607L50.31813565277365,10.722529282970054z" style="fill:rgb(199,199,199);fill-opacity:1"/><path d="M22.35269469516812,-104.0554966266904L20.66183266227198,-44.99940288418215L96.69246144563365,-78.53844446118225z" style="fill:rgb(193,194,194);fill-opacity:1"/><path d="M47.65977598608391,13.819683728823453L50.56716386350489,13.73744007000983L49.97785249506789,11.638100734269134z" style="fill:rgb(191,191,191);fill-opacity:1"/><path d="M47.67437724483793,14.72684909664693L50.84472090918504,14.583604445757764L49.87416918917418,12.601458579004404z" style="fill:rgb(183,183,183);fill-opacity:1"/><path d="M47.90675908901952,15.617980874514952L51.319410987544025,15.32856889789824L50.006565468840705,13.558446305077577z" style="fill:rgb(174,174,174);fill-opacity:1"/><path d="M51.57264687829486,18.226443164305454L54.58650789634361,16.36470000974545L52.97360599841276,16.44725553885746z" style="fill:rgb(175,175,175);fill-opacity:1"/><path d="M48.34207919674418,16.434302281189584L51.96495928471262,15.929851763711993L50.36479559287534,14.45467860341992z" style="fill:rgb(170,170,170);fill-opacity:1"/><path d="M50.57304746759535,18.01115222878689L54.10444335248027,16.465260486769857L52.5174575753327,16.351974444347363z" style="fill:rgb(175,175,175);fill-opacity:1"/><path d="M49.706788625593596,17.648029250799915L53.61109412706703,16.57038038070522L51.65764949342305,15.87090746745673z" style="fill:rgb(174,174,174);fill-opacity:1"/><path d="M48.95452453237791,17.125665122615487L52.74386844856336,16.35236258416366L50.926187486526196,15.239561039457348zM51.575038550467944,17.439861815978784L58.27602251536897,25.37024578202996L53.865372265524435,16.042949233830992z" style="fill:rgb(173,173,173);fill-opacity:1"/><path d="M125.61252744078344,-22.13784205695532L128.41543408491845,-19.5637189526284L127.20660022736328,-21.067924861757923zM125.792206262611,-22.29034085803034L128.620178341454,-16.716301868595462L127.97173045058939,-20.436176394695153zM127.31282819930475,-21.187865240647113L128.59586359582966,-17.604650828725678L128.22764786632047,-19.498294131618625z" style="fill:rgb(193,194,194);fill-opacity:1"/><path d="M57.565772390405115,26.36238456788075L60.31336292637358,24.744589314010994L57.147801528176274,24.00182661526332z" style="fill:rgb(175,175,175);fill-opacity:1"/><path d="M124.85964240061901,-22.48519283965031L128.41595152582929,-15.855078054191655L126.69364726936635,-21.81649331280095zM124.29429163808237,-22.481881872910215L128.49976982230282,-15.893892656462103L125.82029309576247,-22.231827916418453zM127.42624555167772,-21.229760524123105L128.40966959954164,-16.66213251510054L128.4627994148633,-18.595135219470503zM123.79018742909747,-22.460397217089774L127.99955610829204,-15.084070366790915L125.33940935106008,-22.411185989834063zM125.99090277583608,-22.42921847078632L128.1599008909852,-15.803740292151664L128.5476957758992,-17.709620520929825zM124.57335663696567,-22.849772886542834L127.66913748502296,-15.039097657330558L128.39856382478075,-16.843246506259828z" style="fill:rgb(193,194,194);fill-opacity:1"/><path d="M-72.60093081972735,88.62444635408305L0.36195284517410103,53.27380741794799L1.8750458236655243,52.41182292867944z" style="fill:rgb(174,174,174);fill-opacity:1"/><path d="M95.76145352803482,-79.38837571538022L49.86274167569503,11.390628067045304L125.2005903966573,-21.757777795244355zM20.443753578598272,-45.946134083466035L50.552036055115025,11.630809416257614L96.44529409073061,-79.14416174524631zM58.534802563719694,25.479043452213492L128.26310075896217,-15.818600958871487L124.66157332060955,-22.72099850299154zM58.48830382908978,25.400685808602468L131.83511296335539,-8.790819840882563L127.74780296725038,-16.678879868640216zM23.102099505814856,-104.30882334773077L-35.84580699109961,-16.12291401463985L21.563710336132868,-45.433413317589384z" style="fill:rgb(193,194,194);fill-opacity:1"/><path d="M-166.30104536535583,48.28922999548631L-109.47043256783724,17.81724898458857L-168.9063759847964,47.61072554305667z" style="fill:rgb(174,174,174);fill-opacity:1"/><path d="M49.85576546505417,10.49687971036424L53.467740628490475,17.430472962759403L125.41223749946762,-22.441338462350295zM52.9483383980666,16.571596806946623L59.24931904743415,25.63248841603626L125.36054419314381,-22.53123162700296zM50.61028431376313,9.838788722371763L49.56449633056693,11.562032990966712L53.61564293431198,17.596854502907302zM50.07574975819097,10.578997333907871L49.45910237447208,12.475359874100338L52.195027230432764,17.187771874210664zM50.088743606573765,9.853034894413804L53.04989334677115,17.578880933629126L54.230057652623685,16.77305472491985zM49.7546373288144,11.432538167669042L49.5903322687687,13.391463346567464L50.77835825535416,15.986551615495813zM49.58952536808259,10.67742159168142L52.53742156528363,17.45458619306317L53.75255937077443,16.74833212369317zM49.675665728136565,10.634470445722506L51.45853717973941,16.851085760169667L53.37767781038525,16.95949487719518zM49.531473158046495,12.386091240296425L49.80428387489761,14.34955149386462L50.96582066654801,15.887164751895217zM49.50728744520863,11.491400953343463L50.12186088195585,15.283318326709153L52.446055206237006,16.983882506213554zM49.73241105378626,14.352961775148657L50.89133324073644,15.960422856737633L52.63571415324241,16.776234359239886z" style="fill:rgb(193,194,194);fill-opacity:1"/><path d="M-136.21739140370684,104.91149860230969L-166.07672627779678,47.47879306022021L-168.72157287906825,47.08291510635532z" style="fill:rgb(190,190,191);fill-opacity:1"/><path d="M53.143753152017,15.900326884991472L57.46471711977405,24.99620761946194L60.16635493811997,25.309933552647315zM-206.68485643065452,5.829144510863822L-34.904759730574874,-16.417138440621027L23.538792440820682,-104.02532231472517z" style="fill:rgb(193,194,194);fill-opacity:1"/><path d="M-133.22939990541,105.17012114056735L-134.9894643088047,103.77285628438342L-136.84512359641025,105.18893445105076z" style="fill:rgb(207,208,208);fill-opacity:1"/><path d="M-132.68636645712502,105.97865617419613L-134.15297476852396,104.16658810422109L-136.07558737073825,105.68095195632945z" style="fill:rgb(198,198,199);fill-opacity:1"/><path d="M-133.94462578845818,104.51981720334963L-135.8835853363087,103.61525677211606L-137.73672110327524,104.87534505187418z" style="fill:rgb(213,214,215);fill-opacity:1"/><path d="M-134.80610510042797,104.00641739908846L-136.97957549239732,103.54029256381088L-138.0835617394254,105.00142858722236z" style="fill:rgb(217,217,218);fill-opacity:1"/><path d="M-132.34912747064556,106.89675764382001L-133.42563182193842,104.7669619953309L-135.46646668265564,106.33036472005158z" style="fill:rgb(190,190,191);fill-opacity:1"/><path d="M-132.23786417534447,107.87086285819271L-132.85641836926325,105.53401820566293L-135.05020391933718,107.10329272258396z" style="fill:rgb(188,188,189);fill-opacity:1"/><path d="M-132.35697368021414,108.84159771564569L-132.48317371110485,106.42207136958486L-134.8504049893985,107.95544775788927z" style="fill:rgb(184,185,185);fill-opacity:1"/><path d="M-132.69784443249912,109.75051579037626L-132.32907875546718,107.37718184647406L-134.88036462642043,108.83746515304779z" style="fill:rgb(182,183,183);fill-opacity:1"/><path d="M-132.96730712313817,110.05082266027856L-132.43182792284924,108.32666919939254L-135.17907035751466,109.86780479253243z" style="fill:rgb(180,180,180);fill-opacity:1"/><path d="M-133.32180870105543,110.30859098058994L-132.5964919694328,108.82836788053227L-135.61230173240602,110.85539275739939z" style="fill:rgb(179,179,179);fill-opacity:1"/><path d="M-71.68843698063608,88.21660770065013L1.8972079908703463,52.45262038128169L-72.94448147062494,88.73046453763942z" style="fill:rgb(174,174,174);fill-opacity:1"/><path d="M-129.26044312982773,117.0354463015452L-133.9395981657691,109.08665192799309L-131.37232777947898,118.01856507301721z" style="fill:rgb(190,190,191);fill-opacity:1"/><path d="M-168.8629954337163,47.973328931051924L-109.45764441213953,18.25948725927001L-111.23232956077689,17.00857085793182z" style="fill:rgb(174,174,174);fill-opacity:1"/><path d="M-4.614829216929216,39.76744908335107L-1.7759127442232017,42.31970933359353L-3.0025830331639787,40.82213934954165zM-4.435019192944988,39.6118190049447L-1.5512659020168673,45.191805643787255L-2.226261869213189,41.45111929526715zM-2.892050987858463,40.70557245499291L-1.58004875584229,44.29401817848998L-1.9616329032064523,42.39443759054589zM-5.377978981232974,39.427572842658115L-1.7530998200193055,46.06553202452186L-3.527778928098831,40.07498474367556zM-5.9488091859532775,39.438102639144866L-1.6689448638808768,46.025807743424316L-4.414068716148231,39.66805809147217zM-2.7782857001348695,40.66268981352885L-1.7626579695371372,45.2475900082447L-1.7185924239367651,43.30433536391504zM-6.458084310007671,39.46664538075118L-2.1699184153033477,46.85126984265174L-4.902261515806646,39.49452191700794zM-4.235961203496828,39.47012851522769L-2.0102974419349215,46.11869306909962L-1.628937011444236,44.19897385887663zM-5.671810892405302,39.064967415820576L-2.501675428768149,46.89842785842605L-1.7757205423256854,45.077596238454625zM-35.128918989306506,-17.658459979317016L-81.83346066227756,74.73488461169057L-5.042490037959171,40.15500641433733zM-111.90908966966862,17.215848889570815L-81.1425233921267,74.96940120924111L-34.443435093401675,-17.419911148149605zM-206.72967052358027,5.551395626404991L-111.17744762051899,17.72237145196412L-34.17294737173881,-17.04032363454743zM-72.86086268283883,88.88039090933256L-1.9119933768665909,46.114795965549455L-5.5880111369878795,39.196707762243946z" style="fill:rgb(193,194,194);fill-opacity:1"/><path d="M-203.2632718995077,153.27987979151393L-129.05190678147284,116.35918962676817L-206.32058704367438,154.7518840825789z" style="fill:rgb(174,174,174);fill-opacity:1"/><path d="M-72.90706183085769,88.80396531177759L1.705399878465929,53.09931818252142L-2.433637314281203,45.25841243820521z" style="fill:rgb(193,194,194);fill-opacity:1"/><path d="M-135.97370058078607,104.33165431068232L-168.45240922644444,46.63092737970798L-138.17042797115292,104.96928928014738z" style="fill:rgb(190,190,191);fill-opacity:1"/><path d="M-81.8438418660701,73.84304009771297L-78.15595413067969,80.79162383806577L-4.835959463255945,39.4699425305676z" style="fill:rgb(193,194,194);fill-opacity:1"/><path d="M-299.31169099005956,114.09244825185228L-242.00115709599018,82.6712667377832L-303.79797221416453,114.71548551685274z" style="fill:rgb(174,174,174);fill-opacity:1"/><path d="M-133.21343634801468,104.67717419812513L-136.9566870257127,104.60461477311343L-135.21824564620047,105.80052043160694z" style="fill:rgb(206,206,207);fill-opacity:1"/><path d="M-133.96994549538377,104.15690545153093L-137.8536801552156,104.4084921319672L-135.9575388281472,105.160525175335z" style="fill:rgb(212,213,214);fill-opacity:1"/><path d="M-132.599514234063,105.37591316487939L-136.14790748964415,105.0100038727483L-134.6509162289351,106.59404413030228z" style="fill:rgb(196,197,198);fill-opacity:1"/><path d="M-134.8337039908012,103.81763360836189L-138.38226387653162,104.49453416354173L-136.82367595724344,104.69757086160197z" style="fill:rgb(216,216,217);fill-opacity:1"/><path d="M-135.7989068385806,103.61857421533284L-138.9007283408397,104.5861498001706L-137.3107062850053,104.62130250244162z" style="fill:rgb(217,218,218);fill-opacity:1"/><path d="M-132.1654760866285,106.21014776743219L-135.4727284022371,105.59839151738387L-134.29063518666013,107.49865994558255z" style="fill:rgb(190,190,191);fill-opacity:1"/><path d="M-78.68548468114679,79.93945757522084L-72.14156367719929,89.02577727227626L-4.887769319177684,39.38138617774769z" style="fill:rgb(193,194,194);fill-opacity:1"/><path d="M-131.93711040849172,107.13079661802651L-134.97174904838468,106.3337940357849L-134.15968730765405,108.46279392739996z" style="fill:rgb(187,188,188);fill-opacity:1"/><path d="M-131.92723849978222,108.08028040501809L-134.6751195831614,107.17165733343977L-134.26688281681484,109.43152930121853z" style="fill:rgb(184,184,185);fill-opacity:1"/><path d="M-132.13552010679032,108.99892994714037L-134.60125914366105,108.06295464773108L-134.60714738241492,110.35038514415015z" style="fill:rgb(182,182,182);fill-opacity:1"/><path d="M-132.35887782078925,109.22437655809999L-134.798587059966,109.1556884560422L-135.10263700362486,111.23241627234421z" style="fill:rgb(179,179,179);fill-opacity:1"/><path d="M-133.20972001652424,109.34724168253177L-135.45707476477656,110.18431876466471L-130.68525181344765,118.24261411256411z" style="fill:rgb(190,190,191);fill-opacity:1"/><path d="M-206.56833964893312,5.114633934377384L-168.08227320949842,48.119448051255034L-110.28202757051908,17.27871630179983zM-81.09411390587272,73.17887084349607L-82.13499081908286,74.92149537707036L-78.0128941694187,80.96044362229985zM-81.62988351635956,73.93485471145756L-82.2377311439051,75.84657665967036L-79.45208599192243,80.56719173040527zM-81.6156541769432,73.19676375772336L-78.58118248603276,80.94517930471733L-77.39640657182272,80.13038564842073zM-81.94784349023695,74.80170909284101L-82.10155046798455,76.77151078635883L-80.89183186122061,79.3729382606949zM-82.11640832353878,74.03696350752777L-79.10007201116062,80.82684962871569L-77.87995577459333,80.11276925755779zM-82.02990924001811,73.99303424704802L-80.19086125833739,80.23633684606985L-78.26154213407999,80.32709582756046zM-82.16620443423078,75.7665727292769L-81.88020369474572,77.73618978782318L-80.70485572724648,79.27243170362021zM-82.19580442868336,74.86240534283405L-81.55335812292272,78.6752966917036L-79.20150095045834,80.36013632371973zM-81.94999253104355,77.74829375018734L-80.7717389546575,79.34940143833913L-79.01276345227265,80.14993629344866zM-78.49443204289817,79.26645787804237L-74.07099713683967,88.37387886259823L-71.22701356348797,88.70657023580783z" style="fill:rgb(193,194,194);fill-opacity:1"/><path d="M-268.55834147398286,171.07014622009868L-299.12436164042117,113.34386667454932L-303.6020799270883,114.12753739437387z" style="fill:rgb(190,190,191);fill-opacity:1"/><path d="M-206.3177378400867,154.7577049849256L-129.0480812275061,116.36705215224217L-131.08652627186498,117.32718017439218z" style="fill:rgb(174,174,174);fill-opacity:1"/><path d="M-265.56011295051576,171.21955776075697L-267.25550027107215,170.0179943449604L-271.0958327507274,172.2580502851687z" style="fill:rgb(207,208,209);fill-opacity:1"/><path d="M-265.00040391908715,172.0028384056322L-266.40394953631085,170.40454467438184L-270.32236034607433,172.7713882197219z" style="fill:rgb(198,199,200);fill-opacity:1"/><path d="M-266.2914656028687,170.59367401207317L-268.17836246676114,169.85772943351628L-271.9795150062532,171.94546032768807z" style="fill:rgb(213,214,215);fill-opacity:1"/><path d="M-267.1594521820893,170.14472325845446L-269.1366566472475,169.89767306941312L-272.48845641446644,171.9199328886033z" style="fill:rgb(217,217,218);fill-opacity:1"/><path d="M-264.6461224787833,172.89643968007582L-265.6716890413162,170.99488429413313L-269.7038990906521,173.45666666915628z" style="fill:rgb(190,190,191);fill-opacity:1"/><path d="M-264.5171976259808,173.84370612503434L-265.10457201952585,171.75368775175548L-269.2775522836871,174.27580285244844z" style="fill:rgb(188,188,189);fill-opacity:1"/><path d="M-264.62041159079297,174.79109117325777L-264.737267803061,172.6330812695167L-269.0687821957081,175.18016331230103z" style="fill:rgb(184,185,185);fill-opacity:1"/><path d="M-264.9497856704658,175.6777173085996L-264.59225330811694,173.58338968619282L-269.0892295427719,176.12226436928523z" style="fill:rgb(182,183,183);fill-opacity:1"/><path d="M-265.26823033429116,176.06860551506563L-264.70354888771203,174.5319516940006L-269.32593155334143,177.09605966158134z" style="fill:rgb(180,180,180);fill-opacity:1"/><path d="M-265.62802259842056,176.44016015160116L-264.86517886837606,175.0426924480416L-269.7580292328471,177.99229078535407z" style="fill:rgb(179,179,179);fill-opacity:1"/><path d="M-261.50791868614436,183.16926845794112L-266.1217666560067,175.252994871093L-265.57935537209056,185.1114440717865z" style="fill:rgb(190,190,191);fill-opacity:1"/><path d="M-303.7411259198072,114.88713094919089L-241.94239554276265,82.86345281833395L-245.64170445488114,83.01467412772357z" style="fill:rgb(174,174,174);fill-opacity:1"/><path d="M-205.84410669243812,4.7325013726462775L-246.26403832947426,83.86347867625553L-167.188626507615,47.67147249431957zM-136.79231387667448,104.22222631215018L-133.91706648102738,106.75233123015809L-135.16239801848104,105.26151679372052zM-136.61248654607826,104.06352588939285L-133.67199296273353,109.64936061786679L-134.37412982873124,105.88774053706457zM-135.0468799587505,105.14849019273579L-133.70575621817494,108.74170889579676L-134.10026379918583,106.83621093663783zM-137.56625992473317,103.89014306937965L-133.87149524203818,110.53596959422408L-135.6995169913896,104.51584099710773zM-138.14247958287973,103.90827857777413L-133.7869960567097,110.49531532408433L-136.59921814710336,104.11748937726964zM-134.9326459320568,105.10453411312996L-133.88418782307465,109.70678404695369L-133.84981514689508,107.75285040937973zM-138.65749262082824,103.94363600105252L-134.28922702622512,111.33638138880572L-137.09465206262047,103.95034967667343zM-136.413101154829,103.91899631180965L-134.1299068845017,110.59098505449532L-133.7548321144238,108.65705109735575zM-137.8676217670148,103.52977053205548L-134.6225692165576,111.38571605637574L-133.89913155604305,109.54833715589959zM-167.98487324725002,46.62268361057424L-215.52802030698433,140.6765491061882L-137.23676271969924,104.61781949369981zM-246.27490687293604,82.97622047016495L-214.8354221251202,140.9054173908L-167.29772664728577,46.85558692875618zM-206.24753515725544,154.8756229653897L-134.03690711038678,110.5980673604101L-137.78880230780794,103.66453237748412zM-205.17750793693554,4.730594425490143L-303.63070793856383,115.02892202846184L-245.3713134078426,83.4129548533362z" style="fill:rgb(193,194,194);fill-opacity:1"/><path d="M-336.8485588577448,220.98947615429816L-261.30512597954913,182.49061900974226L-341.7841579961637,223.42351196093838z" style="fill:rgb(174,174,174);fill-opacity:1"/><path d="M-206.29340491898017,154.80109595675134L-130.37366628650807,117.53867491502129L-134.56495165364217,109.74567769699243z" style="fill:rgb(193,194,194);fill-opacity:1"/><path d="M-268.33673920903465,170.4396762949262L-303.35571263935105,113.54768729346569L-272.3590025134871,172.11306901440412z" style="fill:rgb(190,190,191);fill-opacity:1"/><path d="M-215.5418097917641,139.7866803390875L-211.77620165159502,146.749955138927L-137.03537580990832,103.9313602850875z" style="fill:rgb(193,194,194);fill-opacity:1"/><path d="M-265.5504780564018,170.68999016084473L-271.1458674492732,171.85156036137107L-269.3739493429741,172.82105408355847z" style="fill:rgb(206,207,208);fill-opacity:1"/><path d="M-266.3281906086282,170.19176669389236L-272.04145291319173,171.63355477524274L-270.13060204620183,172.19928224998387z" style="fill:rgb(213,213,214);fill-opacity:1"/><path d="M-264.9170878241763,171.36370957622285L-270.34215772518576,172.2805259985802L-268.7865283337043,173.6095827524918z" style="fill:rgb(197,197,198);fill-opacity:1"/><path d="M-267.21266687478044,169.8806899356074L-272.56427689815183,171.69733787240662L-271.0135067163403,171.75439631223122z" style="fill:rgb(216,217,217);fill-opacity:1"/><path d="M-212.315861163178,145.90469448050385L-205.52348089345986,155.01288333670564L-137.08726848064603,103.84414060007963z" style="fill:rgb(193,194,194);fill-opacity:1"/><path d="M-268.158227510456,169.7702918502582L-273.0883006468143,171.7620519317893L-271.53997451108626,171.6426587267358z" style="fill:rgb(217,218,218);fill-opacity:1"/><path d="M-264.46640734137446,172.17214234795753L-269.67496637444486,172.89356074475867L-268.4053676905209,174.52135165160746z" style="fill:rgb(190,190,191);fill-opacity:1"/><path d="M-264.2254310454381,173.0641072916668L-269.18222084780984,173.65398754701977L-268.2555860079503,175.50264638961005z" style="fill:rgb(187,188,189);fill-opacity:1"/><path d="M-434.4180721836033,182.68230922591292L-376.58680808635705,150.1507954037247L-440.7963799607289,184.38951584784513z" style="fill:rgb(174,174,174);fill-opacity:1"/><path d="M-264.2080773997002,173.98951172103074L-268.8881075452066,174.512584550818L-268.35147322180194,176.50082972310577z" style="fill:rgb(184,184,185);fill-opacity:1"/><path d="M-264.4164060044228,174.88926134751003L-268.8026860566927,175.42363351106977L-268.6945732647855,177.45496769885324z" style="fill:rgb(182,182,183);fill-opacity:1"/><path d="M-264.6608482657142,175.29626736286116L-268.89598834280406,176.38233853502797L-269.27155666384516,178.32519719103075z" style="fill:rgb(180,180,180);fill-opacity:1"/><path d="M-265.4033528259847,175.48665388791497L-269.58715384619796,177.3311885258786L-264.888599053278,185.3223741627741z" style="fill:rgb(190,190,191);fill-opacity:1"/><path d="M-214.79697701015675,139.1164559764929L-215.83181404561543,140.8777646269814L-211.6383162973138,146.92148741357494zM-215.3323109096376,139.88763419853996L-215.93363548663274,141.81466089146846L-213.09758574929938,146.54383387248714zM-442.19015598714384,122.95900304678263L-302.69225340956615,114.7594785308345L-204.9581985793945,4.952369753814214zM-215.31845458299105,139.1380832643204L-212.20916764676267,146.90885819130187L-211.01933524548443,146.0850206973485zM-215.64867898775302,140.76788499758442L-215.7917597995433,142.74896641398394L-214.56163985017403,145.35591079713694zM-215.8197069645565,139.99327906728826L-212.73552602033482,146.7962559769991L-211.50894535873223,146.07505531677734zM-215.73275557380003,139.94832878771598L-213.8386729678391,146.2184210922668L-211.89824824582263,146.29262943462314zM-215.89718975587962,140.83039392057526L-215.22797761237553,144.66375457076302L-212.8474293890747,146.33366116069124zM-215.86213384117423,141.74447969646255L-215.5624715929709,143.71816717091025L-214.37587591288522,145.2549851039724zM-215.6316507698518,143.74018453892668L-214.4331990113387,145.33466245209956L-212.65977750567447,146.12136291747908zM-212.1292690075809,145.23009582567494L-207.60080751467953,154.35024896040997L-204.61142804576164,154.6953193895165z" style="fill:rgb(193,194,194);fill-opacity:1"/><path d="M-402.9564204362753,239.87921488508132L-434.23603642833655,181.95668978865916L-440.6206805836212,183.7813628225037z" style="fill:rgb(190,190,191);fill-opacity:1"/><path d="M-341.7812078194867,223.42939619750518L-261.30169003901165,182.497492323154L-265.1827772458413,184.39189529820544z" style="fill:rgb(174,174,174);fill-opacity:1"/><path d="M-399.9491583877197,239.9642089628377L-401.6427113329552,238.84017560879727L-407.39530671380356,242.05505062661615z" style="fill:rgb(208,208,209);fill-opacity:1"/><path d="M-399.3778041686821,240.73936449499243L-400.77704618501434,239.2214430885734L-406.6116482684086,242.56844586187162z" style="fill:rgb(199,200,200);fill-opacity:1"/><path d="M-400.69371405312864,239.35122270710227L-402.58005336341364,238.6856632547552L-408.28901366391176,241.74897622656388z" style="fill:rgb(214,214,215);fill-opacity:1"/><path d="M-399.01338188806653,241.6289038497962L-400.0329281472613,239.80885685561574L-405.98251794863296,243.25983301073737z" style="fill:rgb(190,191,191);fill-opacity:1"/><path d="M-401.57341279675643,238.92496792091887L-403.5422156152995,238.74800493138085L-408.8128704207482,241.70767027947463z" style="fill:rgb(217,218,218);fill-opacity:1"/><path d="M-398.8781583490377,242.57721476546067L-399.4557806347942,240.5672193239191L-405.5451146186061,244.09004855274492z" style="fill:rgb(188,189,189);fill-opacity:1"/><path d="M-398.9763278412588,243.53086311768905L-399.08324890252726,241.4494697353893L-405.3262766250985,245.00832175462793z" style="fill:rgb(185,185,186);fill-opacity:1"/><path d="M-399.3054607050197,244.43095965212356L-398.9348271557339,242.40522045653742L-405.3376597676144,245.96501450571978z" style="fill:rgb(183,183,183);fill-opacity:1"/><path d="M-399.6235955656391,244.8592255270222L-399.0467739134035,243.36232680866692L-405.5700180251385,246.92783270126725z" style="fill:rgb(181,181,181);fill-opacity:1"/><path d="M-399.9785805550664,245.263446149695L-399.2070888124945,243.88335167963086L-406.01002504571466,247.8146881995125z" style="fill:rgb(179,179,179);fill-opacity:1"/><path d="M-395.80980775297576,252.39393932129346L-399.98982925727125,244.33821332248507L-405.9982679562774,247.40023737529683z" style="fill:rgb(190,190,191);fill-opacity:1"/><path d="M-440.7491795320017,184.5053476721183L-376.5375480665327,150.27542529864917L-382.10841140184544,151.51290985009766z" style="fill:rgb(174,174,174);fill-opacity:1"/><path d="M-270.98347980041206,171.30164020530955L-268.07113245993196,173.81044184640336L-269.33474266989913,172.32556958162027zM-269.2140786298939,172.21671069922706L-267.8448762120998,175.81400164827306L-268.251702536351,173.9038868958819zM-270.80359249964727,171.1397465314734L-267.80636255380693,176.73165675909598L-268.534603712278,172.94974328664986zM-271.7686040269149,170.97706818606085L-268.00383183069727,177.63103090493075L-269.88506038594113,171.58126714321804zM-272.35081731174563,171.00254314009874L-267.91894268042375,177.58941956395824L-270.798663230564,171.1915178770841zM-269.09941609669534,172.17173713582517L-268.0195296871685,176.7907283277703L-267.9941341236824,174.8259541436044zM-272.8715793847506,171.04543698084598L-268.42181808740565,178.44598815987084L-271.30196974342283,171.03030365459855zM-270.6038979807464,170.9923866557878L-268.2636125509267,177.68789083242197L-267.894023297768,175.73986667011948zM-272.078236080725,170.6188769979837L-268.75660884604275,178.49756570101218L-268.0365575977188,176.64366926490294zM-302.87088343508117,113.52962198679882L-351.3197481353445,209.2921398130902L-271.4457309225873,171.7053291022156zM-442.1916966937158,122.5165189459914L-382.06110430898354,152.07254272787017L-301.90873295063767,114.17108031081408zM-382.75309391070164,151.41207690358542L-350.6254314155421,209.51544808350556L-302.18201828245634,113.75696518213701zM-341.7115911605982,223.54423816933908L-268.17508819027813,177.7059929069314L-272.0043029442231,170.7571166012888zM-341.75706787572744,223.47162339003373L-264.4690786075056,184.5959674416858L-268.7095936323257,176.85770216289217z" style="fill:rgb(193,194,194);fill-opacity:1"/><path d="M-472.52702958207925,291.39763796488256L-395.6124599171718,251.27364287173526L-479.4015817497098,294.8441343057184z" style="fill:rgb(174,174,174);fill-opacity:1"/><path d="M-402.7442811714825,239.236563659148L-440.38927107740926,183.16911430634374L-408.67451203864096,241.92097408837674z" style="fill:rgb(190,190,191);fill-opacity:1"/><path d="M-351.33685934670416,208.40440210753914L-347.49092081641135,215.38216125674933L-271.2494706252399,171.0176639863562zM-348.0410134251113,214.54423707638594L-340.98250862739576,223.6731340129196L-271.3014132171524,170.9317528603619z" style="fill:rgb(193,194,194);fill-opacity:1"/><path d="M-399.94267140182086,239.4437797857904L-407.437870236446,241.6828932339515L-405.65724401963973,242.5669586285828z" style="fill:rgb(206,207,208);fill-opacity:1"/><path d="M-400.7336621334944,238.9556237849263L-408.34445642240735,241.46652192771649L-406.4274944814276,241.95433140564603z" style="fill:rgb(213,214,214);fill-opacity:1"/><path d="M-399.29720561818283,240.11131008979393L-406.62437054211046,242.11188928347391L-405.05700044531386,243.35309786132987z" style="fill:rgb(197,198,199);fill-opacity:1"/><path d="M-401.6298745470574,238.66310986589903L-408.8730081211743,241.52295126522543L-407.3252467672147,241.52404460437572z" style="fill:rgb(216,217,217);fill-opacity:1"/><path d="M-402.5792362072924,238.58397890846018L-409.40538079330923,241.58236638198662L-407.86430127928304,241.41384296133145z" style="fill:rgb(217,218,218);fill-opacity:1"/><path d="M-398.83607672691727,240.91778698174141L-405.9476367541694,242.7262830024946L-404.66468823082283,244.26954663101017z" style="fill:rgb(190,190,191);fill-opacity:1"/><path d="M-398.58802020315755,241.81299921343714L-405.4445736428446,243.48910081501478L-404.50781034061004,245.2615173205143z" style="fill:rgb(188,188,189);fill-opacity:1"/><path d="M-398.565740969832,242.74710978158478L-405.13956508207576,244.35050563739142L-404.6016043444907,246.27562923299666z" style="fill:rgb(184,184,185);fill-opacity:1"/><path d="M-398.7729315912971,243.66198524300805L-405.04167335958783,245.26530327662738L-404.9493128412771,247.24813031692366z" style="fill:rgb(182,182,183);fill-opacity:1"/><path d="M-399.0085824639394,244.11314269222038L-405.1289343068668,246.20828043592704L-405.5402898986929,248.1279089699708z" style="fill:rgb(180,180,180);fill-opacity:1"/><path d="M-571.6540213668696,254.03539328386444L-513.2870889524291,220.33389529564738L-579.9925276732498,256.8175182274822z" style="fill:rgb(175,175,175);fill-opacity:1"/><path d="M-395.60953080154775,251.73149037244102L-405.82021587298135,246.71024570502038L-401.5762179955101,254.82541352255478z" style="fill:rgb(190,190,191);fill-opacity:1"/><path d="M-441.70365111427054,121.98674031711612L-440.2959687206616,184.77141388482275L-381.1750611965634,151.6108047427476zM-350.59702313296054,207.72819444567722L-351.625723009709,209.50959505518586L-347.35869549843034,215.55667246853167zM-351.13233337379233,208.51584792076477L-351.7258931739529,210.45871673640875L-348.83735170897404,215.1958204613425zM-351.1183622188934,207.75368092639468L-347.93247976408696,215.5465785474728L-346.7364123583879,214.71386721095314zM-351.445994944484,209.4099417633763L-351.57927746326453,211.4022354121007L-350.3260099051882,214.0154371738626zM-351.6203257651255,208.62518826330304L-348.46562749262347,215.44063512612175L-347.2332668509877,214.71128673013195zM-351.533006208413,208.5792131138274L-349.5807511568777,214.8763441539507L-347.63002031955455,214.93247298842314zM-351.6954108255757,209.47436036483515L-350.99756353608996,213.32923694538604L-348.5876569595743,214.982311781024zM-351.65534660041897,210.39824415524174L-351.3411891578154,212.37803331388494L-350.14094504159567,213.91355853355523zM-351.408632992494,212.40933214630988L-350.1892417623211,213.99642323647285L-348.40110021701406,214.76764551478126zM-347.8588439417176,213.86820084853346L-343.2232612890599,223.0011233785506L-340.07293297634465,223.35672966675733z" style="fill:rgb(193,194,194);fill-opacity:1"/><path d="M-479.3979134959672,294.8513063790702L-395.60838750825485,251.2816245064469L-401.3919525570589,254.15745062255112z" style="fill:rgb(174,174,174);fill-opacity:1"/><path d="M-539.4720353198204,311.41732852447876L-571.4761013907383,253.31909311795962L-579.8379365889696,256.2039424065068z" style="fill:rgb(190,190,191);fill-opacity:1"/><path d="M-440.9448072488538,121.81493467960385L-521.4709807452052,223.4337361304892L-439.4100412835143,184.30668509366222z" style="fill:rgb(193,194,194);fill-opacity:1"/><path d="M-536.4520957929611,311.4569623333096L-538.1526028025028,310.38053662361534L-545.8675718929846,314.62834857257786z" style="fill:rgb(208,209,209);fill-opacity:1"/><path d="M-535.868454409166,312.2277920054386L-537.2748535697094,310.7555032566411L-545.0713788158351,315.1385382348474z" style="fill:rgb(199,200,201);fill-opacity:1"/><path d="M-537.2089686057227,310.852818885491L-539.1035231313602,310.23484690572275L-546.7728330319661,314.3302657863739z" style="fill:rgb(214,215,215);fill-opacity:1"/><path d="M-535.4954286621883,313.11804688016605L-536.5178061126586,311.339511729756L-544.4303520512374,315.8311179057914z" style="fill:rgb(190,191,191);fill-opacity:1"/><path d="M-538.1019490475757,310.4430776645259L-540.0742632946723,310.31348159258283L-547.306895394858,314.2861114468334z" style="fill:rgb(217,218,218);fill-opacity:1"/><path d="M-535.3515153268789,314.0716729502825L-535.9315838928472,312.0985052034715L-543.9825140350057,316.6666449459839z" style="fill:rgb(188,189,189);fill-opacity:1"/><path d="M-535.4468877894315,315.0359235038766L-535.5495561814007,312.98509761916216L-543.7548167592659,317.5937499624349z" style="fill:rgb(185,185,186);fill-opacity:1"/><path d="M-535.7723492765555,315.95167332436137L-535.3985578117133,313.94855794787844L-543.7602617656272,318.5611198947857z" style="fill:rgb(183,183,183);fill-opacity:1"/><path d="M-536.0876489154331,316.4017916226903L-535.5088023274246,314.91629852175146L-543.9909615661924,319.5274463681467z" style="fill:rgb(181,181,181);fill-opacity:1"/><path d="M-536.4417146645484,316.82495214503695L-535.6669738145632,315.4475273242524L-544.4364867694995,320.41923381650054z" style="fill:rgb(179,179,179);fill-opacity:1"/><path d="M-532.2001465011609,323.832024364968L-536.451100245155,315.91660341066296L-544.4589274742522,320.06649849584807z" style="fill:rgb(190,190,191);fill-opacity:1"/><path d="M-579.9512650083118,256.90922976038377L-513.2442669134973,220.43072930128577L-520.7530148735609,222.727306982592z" style="fill:rgb(175,175,175);fill-opacity:1"/><path d="M-407.2889579920626,241.08272285094858L-404.3393160145356,243.56782641584175L-405.6215896348105,242.09012617069462zM-405.4960002724523,241.98484893934926L-404.0970899035482,245.5870308198639L-404.51666212008325,243.67087156287454zM-407.10903560686126,240.91751323225276L-404.0533762584643,246.5148207810001L-404.8094751742378,242.7112708069063zM-408.08610360515434,240.7664875517574L-404.24852776293307,247.42733174376585L-406.18483294674655,241.34763458580753zM-408.674137585688,240.7994230263604L-404.1632225860831,247.38471182268145L-407.1133072587641,240.96749199345385zM-405.3807832758079,241.9387272567083L-404.2674109475232,246.57558666116353L-404.25175876289717,244.59984795484016zM-409.20015923652784,240.85017605373602L-404.6673825785898,248.25783305571642L-407.62439232776364,240.8124985156079zM-406.90901443281064,240.7671734327489L-404.5097036506898,247.48613228378048L-404.1460965300271,245.523606105069zM-408.40396662041957,240.41050139411374L-405.00378392571184,248.31167018225923L-404.28630214475817,246.44031203567897z" style="fill:rgb(193,194,194);fill-opacity:1"/><path d="M-611.2749378038263,365.05008568960847L-532.0350059374127,322.78760211758714L-539.7821126638889,326.6977862904146z" style="fill:rgb(174,174,174);fill-opacity:1"/><path d="M-605.1580189455426,206.72423505121242L-520.528564803836,223.31277039798528L-440.4891988072991,122.08513316030934zM-439.88731349751725,183.1404110044119L-489.26971158238706,280.66249086637004L-407.7692464001962,241.49555516678245zM-521.4060000112304,222.60411483287032L-488.57365785778256,280.8802288011303L-439.19671378755635,183.36218814839074zM-479.32887093710855,294.9632261873238L-404.4262910797733,247.5162711821401L-408.3343802454924,240.55252327860615zM-479.373936942206,294.8924775112626L-400.6763498323555,254.35624318814246L-404.96732148311224,246.67218944731755z" style="fill:rgb(193,194,194);fill-opacity:1"/><path d="M-712.0111937207156,328.6585903214067L-652.1686451550353,293.37542761581756L-661.6861827472957,296.75701640215203z" style="fill:rgb(175,175,175);fill-opacity:1"/><path d="M-539.2667114592858,310.7691141910127L-579.6167597636686,255.57712828969807L-547.1704771610842,314.5062717609392z" style="fill:rgb(190,190,191);fill-opacity:1"/><path d="M-489.29011361703766,279.77690252543226L-485.3633350522535,286.76887064322403L-407.57814988228546,240.80677587509194zM-485.92372903327293,285.93841472580823L-478.5948554983485,295.0837030935574L-407.6301115816257,240.72217752202084z" style="fill:rgb(193,194,194);fill-opacity:1"/><path d="M-536.4480001021423,310.9461633743215L-545.9092698875173,314.2698334775569L-544.1183441896123,315.10506861214316z" style="fill:rgb(207,208,208);fill-opacity:1"/><path d="M-537.2510012916792,310.4657059098673L-546.8271905943673,314.06007331797366L-544.9025165826871,314.4995083564544z" style="fill:rgb(213,214,215);fill-opacity:1"/><path d="M-535.7902488460874,311.61033220680156L-545.083782574996,314.6947172540518L-543.5054505603171,315.88961486609287z" style="fill:rgb(198,198,199);fill-opacity:1"/><path d="M-538.1597053882309,310.1873482637325L-547.3623030846003,314.1160775030086L-545.8137728793865,314.0819991113589z" style="fill:rgb(216,217,218);fill-opacity:1"/><path d="M-535.319525701485,312.4177686362982L-544.3954921670913,315.30726298807303L-543.1031418626903,316.81039432030593z" style="fill:rgb(190,190,191);fill-opacity:1"/><path d="M-539.1174583936802,310.12948483576605L-547.9035491060985,314.1764053526697L-546.3620156299426,313.9775558664623z" style="fill:rgb(217,218,219);fill-opacity:1"/><path d="M-535.0625115496258,313.319082335118L-543.8817975852855,316.0709066275504L-542.9393409156706,317.8119588155264z" style="fill:rgb(188,188,189);fill-opacity:1"/><path d="M-535.0357920523121,314.2638747617527L-543.5665201659955,316.9362345117386L-543.0309075805958,318.8396182523852z" style="fill:rgb(184,185,185);fill-opacity:1"/><path d="M-535.2398256787827,315.1936850715646L-543.4606355050689,317.85799782986686L-543.3794283611259,319.82825709651183z" style="fill:rgb(182,183,183);fill-opacity:1"/><path d="M-535.4700377874769,315.6678949025282L-543.5447610011511,318.8040649589197L-543.977418201373,320.7208394923811z" style="fill:rgb(180,180,180);fill-opacity:1"/><path d="M-532.0024713268459,323.1627983359387L-544.2867897739836,319.3922571214902L-539.9563068811123,327.36754902319456z" style="fill:rgb(190,190,191);fill-opacity:1"/><path d="M-604.9384953289066,206.0489008254227L-579.2860859322226,257.1178339506341L-519.7876616845291,222.6678178631888zM-488.55494743472394,279.0949772513017L-489.5791109710339,280.89639652668774L-485.23634301921675,286.9467045261148zM-489.09137384491896,279.89924296350233L-489.67738032926377,281.85797789658636L-486.7351294726975,286.60293680471983zM-489.07647208788217,279.1241206091547L-485.8127506398666,286.9394725873683L-484.6115449983213,286.0970084169468zM-489.4028421420394,280.8072382158958L-489.524697531657,282.81095199012697L-488.24867263045144,285.43067083835837zM-489.5801201939377,280.01234175476515L-486.3528695074572,286.8399394849544L-485.1148881769038,286.10236857062097zM-489.492408894269,279.965306245721L-487.4808533514807,286.28934660798035L-485.518994463063,286.3273166557246zM-489.6528520886112,280.87360349410284L-488.9252722372483,284.75042920595445L-486.48594717262637,286.38606739189635zM-489.60690655272464,281.8075498235026L-489.2780106375818,283.7935683724904L-488.0643575565592,285.3278686354157zM-489.34366018355655,283.83415904394735L-488.10437174678265,285.4140040637168L-486.300416042055,286.16867712436976zM-485.74605814657485,285.26103795128057L-481.0014504087557,294.40799734672987L-477.6877142030507,294.76698888333794z" style="fill:rgb(193,194,194);fill-opacity:1"/><path d="M-678.2043415747899,385.76825864601693L-710.9474784820108,327.5030968077282L-721.3547149314186,331.493016350385z" style="fill:rgb(190,191,191);fill-opacity:1"/><path d="M-675.1687416591373,385.7701469826087L-676.8815409515552,384.72985874437774L-686.6193358272402,390.0668145502405z" style="fill:rgb(208,209,210);fill-opacity:1"/><path d="M-674.5731923035455,386.5384563826625L-675.9907816957725,385.09753219600924L-685.8104908728225,390.5721343018129z" style="fill:rgb(200,201,201);fill-opacity:1"/><path d="M-675.9393159006037,385.1735735395552L-677.8443136103223,384.59449016405154L-687.5372773240609,389.7773585751626z" style="fill:rgb(214,215,216);fill-opacity:1"/><path d="M-674.1901308470403,387.43101705900773L-675.2215671256573,385.6780161862897L-685.1571204641881,391.2644609035913z" style="fill:rgb(190,191,191);fill-opacity:1"/><path d="M-676.8451137837967,384.7782500731591L-678.825026125422,384.6885557010052L-688.0812704267512,389.73466223989277z" style="fill:rgb(217,218,218);fill-opacity:1"/><path d="M-674.0393787403467,388.3915537144558L-674.6242360477149,386.4378249885611L-684.6988744166899,392.1039291539621z" style="fill:rgb(188,189,189);fill-opacity:1"/><path d="M-674.1289236268532,389.3669003373123L-674.2348234673037,387.3294633433699L-684.4627090565796,393.0384138219049z" style="fill:rgb(185,186,186);fill-opacity:1"/><path d="M-610.3881333786949,364.58804691608924L-538.8948737189952,326.23659717397214L-619.2647195492718,369.1018412735494z" style="fill:rgb(174,174,174);fill-opacity:1"/><path d="M-674.4521639474566,390.2982961606309L-674.0782166107358,388.30144817562245L-684.4623028507889,394.0165392013102z" style="fill:rgb(183,183,183);fill-opacity:1"/><path d="M-674.7659092808814,390.76480445349193L-674.1867657975148,389.2811734062571L-684.6928857595291,394.9912658470094z" style="fill:rgb(181,181,181);fill-opacity:1"/><path d="M-675.1186596256729,391.2031645816236L-674.3448818548128,389.82177742976216L-685.1419094136205,395.8934160138661z" style="fill:rgb(179,179,179);fill-opacity:1"/><path d="M-670.8203002031777,398.0926703335914L-675.1300586595797,390.30462266117814L-685.1824192321469,395.5944369367134z" style="fill:rgb(190,191,191);fill-opacity:1"/><path d="M-604.1799511200521,205.72308358322505L-662.3558947360108,297.4954576677991L-578.4056176949166,256.6437506286297zM-545.7720177945179,313.64777196117365L-542.7831712410765,316.10799356440407L-544.0852203303674,314.63813076846304zM-543.9538333591819,314.536257206688L-542.5246075207504,318.1433773838672L-542.9577556471845,316.22091603257894zM-545.5921254069498,313.47915365340805L-542.4760089395716,319.081289353177L-543.2601664555274,315.25580766338453zM-546.5800941043592,313.3396271191427L-542.6681623463791,320.007499063266L-544.6623013186241,313.8977511977303zM-547.1739470924513,313.38067567224186L-542.5825364411319,319.9638861364876L-545.6046584095377,313.52714867614407zM-543.838115422173,314.48900952388163L-542.6911576086096,319.14383546439933L-542.6846406932132,317.1571002876537zM-547.7065385795279,313.4387552832542L-543.0884743300855,320.8537114642968L-546.1234570742855,313.37914682588007zM-545.3917806146603,313.3256645270289L-542.9305132760566,320.06828903622824L-542.5740336773209,318.090668187572z" style="fill:rgb(193,194,194);fill-opacity:1"/><path d="M-697.7199968773139,411.7931956000969L-670.6804074443218,397.0980591372891L-707.8823214794577,417.002116821905z" style="fill:rgb(174,174,174);fill-opacity:1"/><path d="M-546.9062688682742,312.9863664203203L-543.4267549619185,320.9098292793629L-542.7108913519941,319.02092812956545z" style="fill:rgb(193,194,194);fill-opacity:1"/><path d="M-711.1129802031605,328.2280328687475L-660.7860003730448,296.33087988332426L-721.483475734074,332.11531305336314z" style="fill:rgb(175,175,175);fill-opacity:1"/><path d="M-579.0977726264164,255.53704849128982L-629.4813288123852,354.8720685265368L-546.2705415239786,314.06989467652505zM-770.7897183200621,294.3322723472624L-661.4059425859788,297.28800836052955L-603.5137737823878,205.93450382068187zM-619.1921856211153,369.21882661732224L-542.8529787747377,320.11073663337316L-546.842276609651,313.1321500990057zM-662.3370333915996,296.63742829712135L-628.783480752427,355.084303972632L-578.405383142386,255.75332770956933zM-619.2367774785625,369.14995889435346L-539.0638580854804,326.8926762494439L-543.4006026597327,319.2709806028266z" style="fill:rgb(193,194,194);fill-opacity:1"/><path d="M-678.0048764291497,385.1168351031058L-721.1417353902941,330.85797585829266L-687.9477217210081,389.95977355065395z" style="fill:rgb(190,191,191);fill-opacity:1"/><path d="M-629.504935229315,353.9887667456853L-625.4949093514883,360.9948757237925L-546.0845980446874,313.38017572483153zM-626.0657568970176,360.1722361693714L-618.4530888635669,369.3307246535919L-546.1365381778153,313.2968792298273z" style="fill:rgb(193,194,194);fill-opacity:1"/><path d="M-675.1673372078109,385.26775827210344L-686.6620051751376,389.7159279192073L-684.8597249152339,390.5161041470877z" style="fill:rgb(207,208,209);fill-opacity:1"/><path d="M-675.9833630235858,384.7943445570151L-687.5919991187269,389.5144071905805L-685.6574847615451,389.91738086390694z" style="fill:rgb(213,214,215);fill-opacity:1"/><path d="M-674.4976706265717,385.92914843329714L-685.8243836187468,390.1349051800975L-684.2340119602892,391.2995621599376z" style="fill:rgb(198,199,200);fill-opacity:1"/><path d="M-676.9037722426923,384.5290783529486L-688.1347022997827,389.57285412207705L-686.5826426304978,389.5117488949677z" style="fill:rgb(216,217,218);fill-opacity:1"/><path d="M-674.0163728194271,386.7385682755292L-685.1238898183449,390.7448651356575L-683.8216521558419,392.2247244478677z" style="fill:rgb(190,190,191);fill-opacity:1"/><path d="M-677.8719106430036,384.4894536447913L-688.6831516481711,389.63776983836823L-687.1401863922943,389.41372560825795z" style="fill:rgb(217,218,219);fill-opacity:1"/><path d="M-673.7514795386554,387.6464027209908L-684.599412906674,391.5096696959415L-683.6506035004604,393.23501278870543z" style="fill:rgb(188,188,189);fill-opacity:1"/><path d="M-673.7187372456932,388.60191987536945L-684.2743185257692,392.3794465641441L-683.7386744771089,394.275852742404z" style="fill:rgb(184,185,185);fill-opacity:1"/><path d="M-673.9201843636165,389.5464397367086L-684.1599824928073,393.3099047784032L-684.0892365213107,395.28014347893867z" style="fill:rgb(183,183,183);fill-opacity:1"/><path d="M-674.1476424188381,390.0373142482339L-684.24401564286,394.26486861772383L-684.6901465302548,396.1869703140997z" style="fill:rgb(180,180,180);fill-opacity:1"/><path d="M-670.6269080141818,397.41939092454794L-685.0153212567798,394.9300887926777L-680.6172296054581,402.77671674190253z" style="fill:rgb(190,191,191);fill-opacity:1"/><path d="M-707.8767024389745,417.0127611371301L-670.6748580320638,397.10857202936745L-680.4504581392669,402.1078835565618z" style="fill:rgb(174,174,174);fill-opacity:1"/><path d="M-628.7746167778015,353.30116517580655L-629.7933130377902,355.1230633895766L-625.3733596281434,361.1759954202826zM-629.3113689653574,354.1224180766895L-629.889945502406,356.0975914703939L-626.8931545472678,360.8499881237863zM-629.296186138018,353.3341099831894L-625.9526309854779,361.1715214691839L-624.7455772896411,360.31972223011354zM-629.6202861498141,355.04487954158895L-629.7323130159766,357.060281057438L-628.4323339411682,359.68611440141257zM-629.800933854965,354.2393306010872L-626.4998662988424,361.0789217696988L-625.2559208752015,360.3327850007103zM-629.7127930325498,354.19119335626533L-627.6412013334045,360.5422793130291L-625.667729867625,360.5619131318775zM-629.8712712402677,355.1132192340301L-629.1141897060311,359.01210260549345L-626.6444664792151,360.6296373204846zM-629.820234033007,356.05744400240775L-629.476153323641,358.04928732908326L-628.2488551374134,359.5824702371077zM-629.5400460375105,358.09971221222577L-628.2791937158672,359.6713739580583L-626.4601093940637,360.4098446165895zM-625.892629647161,359.49370825483464L-621.0357020795509,368.65441357588344L-617.5483079246379,369.0131194159311zM-770.74520537129,293.79531671132537L-720.6160467525931,332.2458667672425L-660.7105555882739,296.60788353518166zM-771.3661645795771,294.76846009525326L-773.8844219148989,297.3255453026963L-776.315578929845,302.9016226469214zM-772.2813640277412,295.3452539454454L-775.2079173608367,310.2463068634644L-769.2727443055596,293.3615934327533zM-770.0844954556768,293.33196316553875L-775.5674797580382,309.57054125617384L-719.7250954890883,332.17731809762114zM-773.2686668824023,296.54033518320716L-775.1781780894371,299.55796051166595L-776.2035400784247,302.95009993140366zM-771.6066137555226,294.641644554207L-776.2041729700367,301.94920372638546L-774.9648052204072,310.2647669862829zM-775.8185012612831,301.01644384808696L-776.2582448109093,304.5153655220352L-775.7069191375961,307.9658435284081zM-775.9354697981973,301.0185224494383L-776.0136128168141,307.02213720425203L-774.6621634939105,310.23044657349953zM-775.6353129247422,308.64885472460355L-721.9346833228802,413.1453905691309L-720.1138620620644,331.3748274628813zM-686.5349235571632,389.08270520634886L-683.5067366715476,391.51720490870423L-684.8290084029386,390.05537311619287zM-684.6914615205238,389.95698080860086L-683.2311586539564,393.56867558799274L-683.678301360172,391.6402788111195zM-686.3551608231046,388.910655475421L-683.1768829009807,394.51718470296703L-683.990710979554,390.66954131509294zM-687.3543717218623,388.7826227058713L-683.3677089457964,395.4572977329284L-685.4197118020562,389.31756897740684zM-687.9550751354834,388.83214379651065L-683.2816771427589,395.4126337237578L-686.3764790679876,388.9565071881463zM-684.5753312261344,389.9086032921748L-683.3929431173942,394.58155200411784L-683.3969167312058,392.58338818355924zM-688.4931343392522,388.89826520425834L-683.7888484230391,396.3196448974354L-686.9040639494593,388.8155558724123zM-686.1544963900501,388.75397288579535L-683.631762019883,395.52006744540154L-683.2797554362963,393.52722132083665zM-720.8242835276453,330.7519430911161L-722.5778655665697,412.9815444764076L-687.0835879241425,389.45912749420285zM-687.6900253553687,388.43236406819113L-684.1288065943667,396.37810777669506L-683.4154905877732,394.4711163902808zM-687.7072222894303,388.4651569736809L-707.650579576915,417.2876533362617L-683.6389989883083,395.5270164512023zM-707.798456178145,417.1210531549721L-679.730280609692,402.29732065919245L-684.1666669762433,394.67324658088097zM-723.0528525528645,412.33806675389343L-706.7986333353139,417.0879807398697L-687.0459204160994,388.61929293436737zM-721.7537799815703,414.0409232347181L-709.3220100185207,417.90641063047053L-706.0709859800379,416.3575768704298zM-722.9117531576798,411.64054987278234L-720.9951156032606,414.59809469852445L-706.0227186743041,416.75153828508917zM-717.7938943447797,417.0324190115325L-711.8733559862292,418.1561034769213L-708.387830320033,417.4113509660608zM-721.6635680385883,413.8190894378548L-716.8961564890681,417.42156322283995L-708.3915383318325,417.66054100009967zM-717.7753663868078,416.9171993437516L-714.420229232763,417.96084672284644L-710.888637045183,418.02771892742794zM-721.5523492222933,413.62119807946806L-719.0458152053487,416.04478605052867L-715.9449660919273,417.64415841763065z" style="fill:rgb(193,194,194);fill-opacity:1"/></svg>